<?xml version="1.0" encoding="UTF-8"?>
<svg version="1.1" xmlns="http://www.w3.org/2000/svg" width="2048" height="2048">
<path d="M0 0 C4.68663635 0.0219931 9.37327321 0.03246578 14.05994701 0.0430975 C29.25894625 0.07801308 44.45768815 0.14956003 59.65649277 0.23085958 C64.98522958 0.25933219 70.31397229 0.28641969 75.64271927 0.3129158 C98.02491495 0.42455916 120.40700779 0.55003907 142.78905392 0.6884594 C145.21803024 0.70344329 147.64700748 0.71826983 150.07598495 0.73306656 C194.15767865 1.00263432 238.23041479 1.48879328 282.30623245 2.26610184 C282.33015994 13.04296794 282.34753224 23.81982705 282.35804462 34.59671497 C282.36310801 39.60916056 282.36987219 44.62158715 282.38167191 49.63402176 C282.46307138 85.18716213 281.95435182 120.72016149 281.30623245 156.26610184 C280.65526785 156.2609481 280.00430325 156.25579437 279.33361244 156.25048447 C202.08149332 155.64106267 124.82793326 155.14292594 47.57330358 155.03770638 C46.65914289 155.03645823 45.74498219 155.03521008 44.80311966 155.0339241 C43.89245196 155.03269106 42.98178426 155.03145802 42.04352057 155.03018761 C35.65277283 155.02079161 29.26207687 155.00345573 22.87135696 154.98265457 C15.04568187 154.95733091 7.22007775 154.94296061 -0.60563982 154.9423635 C-4.59924199 154.94182132 -8.59268652 154.93676431 -12.58625031 154.91848373 C-44.72296604 154.77870931 -78.89166351 156.61369924 -104.69376755 178.26610184 C-105.5651738 178.97637527 -106.43658005 179.68664871 -107.33439255 180.41844559 C-125.97630078 196.29755604 -134.06215735 220.56543683 -136.69376755 244.26610184 C-136.96895759 247.92880888 -137.12523595 251.59083026 -137.25822067 255.26121902 C-137.31894382 256.8697632 -137.31894382 256.8697632 -137.38089371 258.51080322 C-137.86545487 272.58582813 -137.90300175 286.6670647 -137.96415901 300.74879932 C-137.98280269 304.77580705 -138.00706302 308.80278117 -138.03080368 312.82976151 C-138.08520354 322.19968938 -138.1334781 331.56964334 -138.18074417 340.93960953 C-138.24049673 352.76081537 -138.30236952 364.58200467 -138.37131643 376.40316081 C-138.39422113 380.36101986 -138.41579712 384.31887367 -138.43340683 388.2767601 C-138.56131446 416.94537244 -139.10613632 445.60358043 -139.69376755 474.26610184 C-138.5930328 474.26388123 -137.49229805 474.26166061 -136.3582077 474.25937271 C-72.93133803 474.13629595 -9.50982973 474.28268496 53.91560745 474.70360184 C54.74155891 474.709075 55.56751036 474.71454817 56.41849065 474.72018719 C77.48306849 474.85993959 98.54759283 475.00703094 119.61210108 475.15686607 C131.81563391 475.24360027 144.01917996 475.32825928 156.22273636 475.41160965 C157.09732009 475.41758364 157.97190383 475.42355763 158.8729901 475.42971265 C163.26576991 475.459708 167.65854995 475.48967063 172.05133009 475.51961708 C207.80300013 475.76338465 243.55462938 476.01270905 279.30623245 476.26610184 C279.3113986 483.50032995 279.31523564 490.73455763 279.31756637 497.96878724 C279.31868739 501.33125752 279.32032475 504.69372552 279.32273483 508.05619526 C279.33923088 531.70302196 279.1786109 555.34508503 278.89436722 578.99007034 C278.78400362 588.27678516 278.67905304 597.56356184 278.57337475 606.85033095 C278.51759765 611.74973079 278.46165363 616.64912872 278.40571976 621.54852676 C278.38636825 623.24413076 278.36701748 624.93973477 278.34766769 626.63533878 C278.33399406 627.83349059 278.32032043 629.0316424 278.30623245 630.26610184 C201.37798821 630.46165281 124.45528711 629.96813079 47.5293164 629.44921224 C33.60593689 629.35537748 19.68253082 629.26643975 5.75910582 629.17964382 C-8.7589808 629.08909868 -23.27704382 628.99538427 -37.79508793 628.89825624 C-45.86010824 628.84435136 -53.92513157 628.79160414 -61.99018097 628.74222374 C-68.79594825 628.70051858 -75.60168763 628.65577185 -82.40740995 628.60726363 C-85.85790072 628.58274766 -89.30838576 628.55949067 -92.75890923 628.54005814 C-108.75959825 628.44674236 -124.71382841 628.10849232 -140.69376755 627.26610184 C-140.6909701 628.17883208 -140.6909701 628.17883208 -140.68811613 629.11000133 C-140.55947862 673.85484746 -140.76243265 718.59741725 -141.04508591 763.34129715 C-141.05192116 764.42430331 -141.05192116 764.42430331 -141.05889449 765.52918839 C-141.18082921 784.8289032 -141.30765925 804.12858511 -141.43617925 823.42825706 C-141.51279377 834.93573108 -141.58847496 846.44321093 -141.66355705 857.95069504 C-141.67447882 859.62410497 -141.68540076 861.29751491 -141.69632288 862.97092484 C-141.71279346 865.49459748 -141.72926339 868.01827013 -141.74573114 870.5419428 C-141.89803272 893.87910832 -142.05126693 917.21626758 -142.20656109 940.55341339 C-142.21236731 941.42597097 -142.21817353 942.29852855 -142.2241557 943.19752727 C-142.27126674 950.27649629 -142.31840406 957.35546513 -142.36554335 964.43443396 C-142.54960557 992.07850072 -142.73066709 1019.7225857 -142.90934372 1047.36668777 C-143.11154391 1078.64926721 -143.31594166 1109.93183119 -143.52354723 1141.21437526 C-143.5457581 1144.56219145 -143.56796218 1147.91000768 -143.59016228 1151.25782394 C-143.59836005 1152.49370581 -143.59836005 1152.49370581 -143.60672343 1153.75455499 C-143.68829199 1166.05800908 -143.76821386 1178.36147312 -143.8472538 1190.6649437 C-143.93725839 1204.67460864 -144.02962978 1218.68425586 -144.12494534 1232.69388571 C-144.17329884 1239.8096357 -144.22070823 1246.92538825 -144.26506042 1254.0411644 C-144.48438204 1289.12284911 -144.93784249 1324.19171595 -145.69376755 1359.26610184 C-148.13086501 1359.27127568 -150.56796256 1359.27639467 -153.0050602 1359.2814827 C-154.03107984 1359.28366932 -154.03107984 1359.28366932 -155.07782716 1359.28590012 C-175.62637264 1359.32855503 -196.17331539 1359.20688385 -216.7211113 1359.04735184 C-217.98799852 1359.03752777 -219.25488575 1359.0277037 -220.5601635 1359.01758194 C-226.45019773 1358.97141415 -232.34022175 1358.92411675 -238.23023788 1358.87569639 C-252.72965308 1358.75650094 -267.22909144 1358.64015748 -281.72852691 1358.52345788 C-285.34450035 1358.49435172 -288.96047367 1358.46523088 -292.57644701 1358.43611145 C-299.61555374 1358.37942761 -306.6546606 1358.32275943 -313.69376755 1358.26610184 C-313.7896117 1293.86857096 -313.75057141 1229.47380894 -313.34244919 1165.07738113 C-313.33561394 1163.99716722 -313.33561394 1163.99716722 -313.3286406 1162.8951308 C-313.20936955 1144.07935956 -313.08192374 1125.26364636 -312.95135585 1106.44795049 C-312.87400304 1095.29527617 -312.7984441 1084.14259073 -312.72397804 1072.98989677 C-312.71857778 1072.18148028 -312.71317752 1071.37306378 -312.70761361 1070.54014982 C-312.68567048 1067.25517844 -312.66373267 1063.97020703 -312.64180396 1060.68523555 C-312.43920102 1030.33979628 -312.23177732 999.99439178 -312.02199175 969.64900141 C-311.83642653 942.80240192 -311.65548668 915.95577475 -311.47819138 889.10911942 C-311.27692482 858.63478971 -311.07276165 828.16048162 -310.86398786 797.68620235 C-310.8417768 794.4429311 -310.81957312 791.1996598 -310.79737282 787.95638847 C-310.78917505 786.75931254 -310.78917505 786.75931254 -310.78081167 785.53805326 C-310.69879909 773.5546858 -310.61898458 761.57130503 -310.5402813 749.58791542 C-310.45123158 736.03079413 -310.3590066 722.47369859 -310.26258976 708.91662761 C-310.21360655 702.01775691 -310.16600154 695.11888391 -310.12247467 688.21997643 C-310.08247672 681.90366759 -310.03833038 675.58740156 -309.99093764 669.27114401 C-309.97456524 666.9940022 -309.95967808 664.7168491 -309.94647003 662.43968674 C-309.87542904 650.34450113 -309.63768489 638.32834135 -308.69376755 626.26610184 C-309.76344749 626.26861277 -310.83312743 626.2711237 -311.93522191 626.27371073 C-367.9671995 626.4043824 -423.99548454 626.2390245 -480.02618629 625.8765443 C-485.78590642 625.83934817 -491.54563528 625.8038627 -497.30537033 625.76906204 C-533.77558422 625.54730401 -570.23363611 625.21957754 -606.69376755 624.26610184 C-606.71748368 612.14307358 -606.73497135 600.02005129 -606.74557972 587.89700413 C-606.75068444 582.26099487 -606.75753913 576.62500203 -606.769207 570.98900223 C-606.83622191 537.73608636 -606.4486686 504.51056981 -605.69376755 471.26610184 C-533.6106705 471.15199903 -461.53005861 471.19314378 -389.44812363 471.65565938 C-383.55856953 471.69336138 -377.6690044 471.72870388 -371.77943039 471.76314163 C-363.82791643 471.80985353 -355.87645604 471.8623435 -347.92500687 471.91897964 C-344.99533327 471.93970848 -342.06565823 471.95837756 -339.13595963 471.97519302 C-335.13328638 471.99833456 -331.13070875 472.02913163 -327.12809372 472.06077957 C-325.37736384 472.06941229 -325.37736384 472.06941229 -323.59126568 472.07821941 C-318.19138465 472.12727608 -313.01333435 472.31433626 -307.69376755 473.26610184 C-307.69515024 472.43446345 -307.69515024 472.43446345 -307.69656086 471.58602428 C-307.79394724 411.94716425 -307.86897773 352.30752963 -307.34633636 292.67032623 C-307.31899295 289.41791289 -307.29508552 286.16549126 -307.27216721 282.91304398 C-306.95685297 239.3247993 -306.95685297 239.3247993 -304.69376755 220.26610184 C-304.553582 219.04084793 -304.41339645 217.81559402 -304.26896286 216.55321121 C-303.90388278 213.67363089 -303.48189952 210.81676062 -303.00626755 207.95360184 C-302.83965622 206.94201004 -302.67304489 205.93041824 -302.50138474 204.88817215 C-293.11121156 150.81601093 -266.97627816 98.1319506 -223.4554863 63.47313309 C-221.66368078 62.0412093 -219.89361342 60.58148455 -218.1507988 59.09032059 C-157.85723124 7.73589013 -75.84137362 -0.39592727 0 0 Z " fill="#000000" transform="translate(1094.6937675476074,655.7338981628418)"/>
<path d="M0 0 C2.5625 1.4375 2.5625 1.4375 4 3 C4 3.66 4 4.32 4 5 C5.98 5.33 7.96 5.66 10 6 C10 6.66 10 7.32 10 8 C10.79664063 8.14308594 10.79664063 8.14308594 11.609375 8.2890625 C14.77346778 9.2300182 17.3872457 10.73617689 20.25 12.375 C21.32765625 12.98085938 22.4053125 13.58671875 23.515625 14.2109375 C24.33546875 14.80132812 25.1553125 15.39171875 26 16 C26 16.99 26 17.98 26 19 C28.31 19.33 30.62 19.66 33 20 C33 20.66 33 21.32 33 22 C34.32 22.33 35.64 22.66 37 23 C37 23.66 37 24.32 37 25 C38.98 25.33 40.96 25.66 43 26 C43 26.66 43 27.32 43 28 C44.32 28.33 45.64 28.66 47 29 C47 29.66 47 30.32 47 31 C47.59167969 31.17015625 48.18335938 31.3403125 48.79296875 31.515625 C53.71410337 33.02487999 57.07741616 34.58031152 61 38 C63.12066512 39.32342259 65.26386928 40.59677441 67.42578125 41.8515625 C67.94527344 42.23054688 68.46476563 42.60953125 69 43 C69 43.66 69 44.32 69 45 C69.9075 45.103125 70.815 45.20625 71.75 45.3125 C75.03071844 46.00649813 76.60889095 46.70085668 79 49 C79 49.66 79 50.32 79 51 C81.97 51.495 81.97 51.495 85 52 C85 52.66 85 53.32 85 54 C86.65 54.33 88.3 54.66 90 55 C90 55.66 90 56.32 90 57 C91.65 57.33 93.3 57.66 95 58 C95 58.66 95 59.32 95 60 C95.55558594 60.10441406 96.11117187 60.20882812 96.68359375 60.31640625 C99.46455436 61.13709446 101.5964718 62.41622468 104.0625 63.9375 C104.91972656 64.46214844 105.77695312 64.98679687 106.66015625 65.52734375 C108.45711069 66.65831508 110.23335884 67.82223923 112 69 C112 69.66 112 70.32 112 71 C113.98 71.33 115.96 71.66 118 72 C118 72.66 118 73.32 118 74 C119.32 74.33 120.64 74.66 122 75 C122 75.66 122 76.32 122 77 C123.65 77.33 125.3 77.66 127 78 C127 78.66 127 79.32 127 80 C127.721875 80.10699219 128.44375 80.21398437 129.1875 80.32421875 C135.92983914 81.94425302 141.69970734 86.70246541 147 91 C149.29899882 92.40656046 151.63631219 93.70228905 154 95 C154 95.66 154 96.32 154 97 C154.886875 97.103125 155.77375 97.20625 156.6875 97.3125 C160.0826755 98.01715907 162.21942098 98.9554566 165 101 C165 101.66 165 102.32 165 103 C166.65 103.33 168.3 103.66 170 104 C170 104.66 170 105.32 170 106 C170.721875 106.103125 171.44375 106.20625 172.1875 106.3125 C175.27793421 107.06793947 177.41743841 108.15531315 180 110 C180 110.66 180 111.32 180 112 C180.721875 112.0825 181.44375 112.165 182.1875 112.25 C185.61041028 113.16277607 187.28695163 114.73912635 190 117 C192.29551993 118.41373357 194.63551948 119.70185383 197 121 C197 121.66 197 122.32 197 123 C198.98 123.33 200.96 123.66 203 124 C203 124.66 203 125.32 203 126 C204.2065625 126.185625 204.2065625 126.185625 205.4375 126.375 C206.283125 126.58125 207.12875 126.7875 208 127 C208.33 127.66 208.66 128.32 209 129 C210.67649317 130.02125411 210.67649317 130.02125411 212.6875 130.9375 C213.40292969 131.28167969 214.11835938 131.62585938 214.85546875 131.98046875 C215.56316406 132.31691406 216.27085937 132.65335938 217 133 C219 134 221 135 223 136 C223 136.66 223 137.32 223 138 C223.7425 138.0825 224.485 138.165 225.25 138.25 C228.59767095 139.16300117 229.56439591 140.56439591 232 143 C234.60124046 144.47854708 237.2788025 145.75828852 240 147 C240 147.66 240 148.32 240 149 C241.98 149.33 243.96 149.66 246 150 C246 150.66 246 151.32 246 152 C246.8353125 152.1546875 246.8353125 152.1546875 247.6875 152.3125 C250.4769101 153.14178408 252.6139064 154.34299056 255 156 C255 156.66 255 157.32 255 158 C255.70125 158.0825 256.4025 158.165 257.125 158.25 C260.6845752 159.17858484 263.00776119 160.88049751 266 163 C269.94580634 165.42818852 273.97291501 167.71008893 278 170 C278 170.66 278 171.32 278 172 C279.65 172.33 281.3 172.66 283 173 C283 173.66 283 174.32 283 175 C283.9075 175.28875 284.815 175.5775 285.75 175.875 C292.62790698 178.25581395 292.62790698 178.25581395 294 181 C296.02463255 181.65213292 296.02463255 181.65213292 298 182 C298 182.66 298 183.32 298 184 C299.65 184.33 301.3 184.66 303 185 C303.33 185.99 303.66 186.98 304 188 C305.81296615 188.62092718 305.81296615 188.62092718 308 189 C309.6744239 189.6469365 311.34302621 190.30959426 313 191 C313 191.66 313 192.32 313 193 C315.65228812 194.07525194 318.28368454 195.09456151 321 196 C321 196.66 321 197.32 321 198 C321.58265625 198.11859375 322.1653125 198.2371875 322.765625 198.359375 C325.10681587 199.03062553 326.71673256 199.92249481 328.75 201.25 C329.44222656 201.69601563 330.13445312 202.14203125 330.84765625 202.6015625 C331.55792969 203.06304687 332.26820313 203.52453125 333 204 C334.39396792 204.87796875 335.7897533 205.75305972 337.1875 206.625 C337.84621094 207.03621094 338.50492187 207.44742188 339.18359375 207.87109375 C342.7240114 210.07148235 346.24200522 212.1905951 350 214 C350 214.66 350 215.32 350 216 C351.11375 216.1546875 351.11375 216.1546875 352.25 216.3125 C355.1973519 217.04933797 356.78383074 217.94799142 359 220 C359 220.66 359 221.32 359 222 C360.11375 222.185625 360.11375 222.185625 361.25 222.375 C363.80141485 222.95486701 365.7267573 223.73708739 368 225 C368 225.66 368 226.32 368 227 C369.65 227.33 371.3 227.66 373 228 C373 228.66 373 229.32 373 230 C374.65 230.33 376.3 230.66 378 231 C378.33 231.99 378.66 232.98 379 234 C380.31774196 234.39044206 381.65667272 234.70955086 383 235 C389.39001562 237.98200729 395.02402584 241.11993301 400.3125 245.76171875 C403.54359158 248.13268178 407.29480496 249.52615575 411 251 C411 251.66 411 252.32 411 253 C412.32 253.33 413.64 253.66 415 254 C415 254.66 415 255.32 415 256 C415.969375 256.12375 416.93875 256.2475 417.9375 256.375 C419.4534375 256.684375 419.4534375 256.684375 421 257 C421.33 257.66 421.66 258.32 422 259 C422.99 259.33 423.98 259.66 425 260 C425 260.66 425 261.32 425 262 C426.98 262.33 428.96 262.66 431 263 C431 263.66 431 264.32 431 265 C432.98516566 265.99479348 434.97170491 266.98610559 436.96484375 267.96484375 C444.94462126 271.89942712 444.94462126 271.89942712 448 274 C448 274.66 448 275.32 448 276 C448.7425 276.103125 449.485 276.20625 450.25 276.3125 C453.1973519 277.04933797 454.78383074 277.94799142 457 280 C457 280.66 457 281.32 457 282 C457.886875 282.103125 458.77375 282.20625 459.6875 282.3125 C463.0826755 283.01715907 465.21942098 283.9554566 468 286 C468 286.66 468 287.32 468 288 C468.7425 288.103125 469.485 288.20625 470.25 288.3125 C473.1973519 289.04933797 474.78383074 289.94799142 477 292 C477 292.66 477 293.32 477 294 C477.928125 294.12375 478.85625 294.2475 479.8125 294.375 C483 295 483 295 486 297 C486 297.66 486 298.32 486 299 C487.65 299.33 489.3 299.66 491 300 C491 300.66 491 301.32 491 302 C491.804375 302.12375 492.60875 302.2475 493.4375 302.375 C494.7059375 302.684375 494.7059375 302.684375 496 303 C496.33 303.66 496.66 304.32 497 305 C497.99 305.33 498.98 305.66 500 306 C500 306.66 500 307.32 500 308 C501.98 308.33 503.96 308.66 506 309 C506 309.66 506 310.32 506 311 C506.9590625 311.3403125 506.9590625 311.3403125 507.9375 311.6875 C512.13320261 313.48565826 516.03900556 315.73904021 520 318 C520 318.66 520 319.32 520 320 C520.7425 320.12375 521.485 320.2475 522.25 320.375 C524.80141485 320.95486701 526.7267573 321.73708739 529 323 C529 323.66 529 324.32 529 325 C529.7425 325.28875 530.485 325.5775 531.25 325.875 C533.56739797 326.82302644 535.77917115 327.84845911 538 329 C538 329.66 538 330.32 538 331 C539.65 331.33 541.3 331.66 543 332 C543 332.66 543 333.32 543 334 C544.98 334.33 546.96 334.66 549 335 C549 335.66 549 336.32 549 337 C550.10408203 337.40605469 550.10408203 337.40605469 551.23046875 337.8203125 C553.87927212 338.94857571 555.96761067 340.22028833 558.3125 341.875 C561.83331807 344.28274747 565.36582224 346.27932632 569.203125 348.12890625 C571.57758395 349.28000265 573.82462954 350.50443281 576 352 C576 352.66 576 353.32 576 354 C577.65 354.33 579.3 354.66 581 355 C581 355.66 581 356.32 581 357 C582.65 357.33 584.3 357.66 586 358 C586 358.66 586 359.32 586 360 C586.721875 360.0825 587.44375 360.165 588.1875 360.25 C591.57776715 361.15407124 593.31180664 362.78224048 596 365 C598.6794645 366.24016669 598.6794645 366.24016669 601 367 C601 367.66 601 368.32 601 369 C601.99 369 602.98 369 604 369 C604.33 369.66 604.66 370.32 605 371 C606.670625 371.7115625 606.670625 371.7115625 608.375 372.4375 C612 374 612 374 613.4375 375.46875 C615.34258678 377.33573504 617.15900123 378.07047769 619.625 379.0625 C623.89057751 380.78115502 623.89057751 380.78115502 625 383 C626.59396973 383.89125189 628.22565071 384.7159615 629.875 385.5 C632.76031 386.87956513 635.33078996 388.22052664 638 390 C638 390.66 638 391.32 638 392 C638.721875 392.0825 639.44375 392.165 640.1875 392.25 C643.60620859 393.16165562 645.26178359 394.7712192 648 397 C649.99213777 398.0873583 652.01901808 399.07168487 654.0625 400.05859375 C656.48361925 401.23498435 658.78051565 402.47410451 661 404 C661 404.66 661 405.32 661 406 C661.9075 406.0825 662.815 406.165 663.75 406.25 C667.44152488 407.10189036 668.55595843 408.20680963 671 411 C671.66 411.33 672.32 411.66 673 412 C672.6875 414.375 672.6875 414.375 672 417 C669 419 669 419 665 419 C664.67 419.99 664.34 420.98 664 422 C663.34 422 662.68 422 662 422 C662 422.66 662 423.32 662 424 C660.71086513 424.67154933 659.41859796 425.33708859 658.125 426 C657.40570312 426.37125 656.68640625 426.7425 655.9453125 427.125 C654 428 654 428 652 428 C652 428.66 652 429.32 652 430 C649.76855469 431.55639648 649.76855469 431.55639648 646.671875 433.37109375 C645.56199219 434.02787109 644.45210937 434.68464844 643.30859375 435.36132812 C642.12262162 436.05377227 640.93642132 436.74582576 639.75 437.4375 C637.45113431 438.78702754 635.15510104 440.14121729 632.859375 441.49609375 C631.83295898 442.09607178 630.80654297 442.6960498 629.74902344 443.31420898 C627.02980434 444.89867882 627.02980434 444.89867882 624.88378906 446.71899414 C623 448 623 448 619 448 C619 448.66 619 449.32 619 450 C617.68 450.33 616.36 450.66 615 451 C615 451.66 615 452.32 615 453 C612.04518508 455.74375671 611.22528092 456 607 456 C607 456.66 607 457.32 607 458 C604.4453125 459.7265625 604.4453125 459.7265625 601.125 461.625 C600.03445313 462.25664062 598.94390625 462.88828125 597.8203125 463.5390625 C595 465 595 465 593 465 C593 465.66 593 466.32 593 467 C590.66492857 468.62157738 588.6553381 469.8458028 585.875 470.5 C583.9261379 470.84856233 583.9261379 470.84856233 582.69921875 472.33203125 C580.63049161 474.36271284 578.42528097 475.70362475 575.9375 477.1875 C575.05964844 477.71730469 574.18179688 478.24710938 573.27734375 478.79296875 C571 480 571 480 569 480 C569 480.66 569 481.32 569 482 C568.01 482 567.02 482 566 482 C566 482.66 566 483.32 566 484 C564.35 484.33 562.7 484.66 561 485 C561 485.66 561 486.32 561 487 C553.89414909 492.00601317 553.89414909 492.00601317 549.5390625 491.9921875 C545.5139993 491.14973241 541.91382316 490.04051112 539 487 C539 486.34 539 485.68 539 485 C538.11699219 484.9071875 537.23398437 484.814375 536.32421875 484.71875 C532.67224235 483.92913348 530.77030611 482.737844 527.8125 480.5 C525.11215841 478.4757808 523.21497918 477.07165973 520 476 C520 475.34 520 474.68 520 474 C519.01 474 518.02 474 517 474 C516.67 473.34 516.34 472.68 516 472 C514.02111039 471.27306096 512.02045442 470.60183749 510 470 C510 469.34 510 468.68 510 468 C506.44579608 466.17836929 502.80622717 464.63261064 499.12109375 463.09765625 C496.92379084 461.96056211 495.7271369 460.74458273 494 459 C491.39973723 457.39070352 488.7473878 455.90089186 486.08203125 454.40234375 C485.39496094 453.93957031 484.70789063 453.47679687 484 453 C484 452.34 484 451.68 484 451 C483.0925 450.71125 482.185 450.4225 481.25 450.125 C478.67797092 449.23468224 476.38653234 448.28505587 474 447 C474 446.34 474 445.68 474 445 C473.278125 444.896875 472.55625 444.79375 471.8125 444.6875 C468.72206579 443.93206053 466.58256159 442.84468685 464 441 C464 440.34 464 439.68 464 439 C462.35 438.67 460.7 438.34 459 438 C459 437.34 459 436.68 459 436 C458.38125 435.855625 457.7625 435.71125 457.125 435.5625 C455 435 455 435 453 434 C453 433.34 453 432.68 453 432 C452.484375 431.9175 451.96875 431.835 451.4375 431.75 C447.95544268 430.67859775 445.12799115 428.86476395 442 427 C442 426.34 442 425.68 442 425 C441.36191406 424.81824219 440.72382812 424.63648438 440.06640625 424.44921875 C439.24011719 424.19785156 438.41382813 423.94648438 437.5625 423.6875 C436.73878906 423.44386719 435.91507813 423.20023437 435.06640625 422.94921875 C434.38449219 422.63597656 433.70257812 422.32273437 433 422 C432.67 421.01 432.34 420.02 432 419 C430.35 418.67 428.7 418.34 427 418 C427 417.34 427 416.68 427 416 C425.35 415.67 423.7 415.34 422 415 C421.67 414.01 421.34 413.02 421 412 C420.01 412 419.02 412 418 412 C418 411.34 418 410.68 418 410 C416.02 409.67 414.04 409.34 412 409 C412 408.34 412 407.68 412 407 C409.34771188 405.92474806 406.71631546 404.90543849 404 404 C404 403.34 404 402.68 404 402 C403.443125 401.896875 402.88625 401.79375 402.3125 401.6875 C399.5230899 400.85821592 397.3860936 399.65700944 395 398 C395 397.34 395 396.68 395 396 C393.35 395.67 391.7 395.34 390 395 C389.67 394.01 389.34 393.02 389 392 C387.68225804 391.60955794 386.34332728 391.29044914 385 391 C381.81457827 389.50480204 378.93018226 387.95345484 376 386 C376 385.34 376 384.68 376 384 C375.0925 383.9175 374.185 383.835 373.25 383.75 C369.54241549 382.89440357 368.49767239 381.75605229 366 379 C365.01 378.67 364.02 378.34 363 378 C363 377.34 363 376.68 363 376 C362.278125 375.9175 361.55625 375.835 360.8125 375.75 C357.40678783 374.84181009 355.69949062 373.23860198 353 371 C351.00854609 369.98308736 349.00812926 368.98357352 347 368 C345 366.66666667 343 365.33333333 341 364 C340.01 363.67 339.02 363.34 338 363 C338 362.34 338 361.68 338 361 C336.01483434 360.00520652 334.02829509 359.01389441 332.03515625 358.03515625 C324.05537874 354.10057288 324.05537874 354.10057288 321 352 C321 351.34 321 350.68 321 350 C320.2575 349.896875 319.515 349.79375 318.75 349.6875 C315.8026481 348.95066203 314.21616926 348.05200858 312 346 C312 345.34 312 344.68 312 344 C311.0925 343.896875 310.185 343.79375 309.25 343.6875 C305.96928156 342.99350187 304.39110905 342.29914332 302 340 C302 339.34 302 338.68 302 338 C301.0925 337.71125 300.185 337.4225 299.25 337.125 C296.67797092 336.23468224 294.38653234 335.28505587 292 334 C292 333.34 292 332.68 292 332 C291.2575 331.87625 290.515 331.7525 289.75 331.625 C285.62994923 330.68862483 282.73187951 329.27825541 280 326 C280 325.34 280 324.68 280 324 C278.02 323.67 276.04 323.34 274 323 C274 322.34 274 321.68 274 321 C272.68 320.67 271.36 320.34 270 320 C270 319.34 270 318.68 270 318 C269.0925 317.9175 268.185 317.835 267.25 317.75 C263.42916096 316.86826791 262.71730122 315.71730122 260 313 C257.74244406 311.8959398 255.45970618 310.94622519 253.12109375 310.02734375 C250.89222267 308.94779846 249.70265336 307.76707808 248 306 C246.83360438 305.31678831 245.64498269 304.67015327 244.4375 304.0625 C241.13216882 302.27211228 241.13216882 302.27211228 239.9375 299.8125 C239.4734375 298.9153125 239.4734375 298.9153125 239 298 C237.01178687 297.60235737 235.00875442 297.27571139 233 297 C230.125 295.5625 230.125 295.5625 228 294 C228 293.34 228 292.68 228 292 C226.02 291.67 224.04 291.34 222 291 C222 290.34 222 289.68 222 289 C219.06279492 287.47700477 216.0831351 286.19899698 213 285 C213 284.34 213 283.68 213 283 C212.195625 282.87625 211.39125 282.7525 210.5625 282.625 C209.716875 282.41875 208.87125 282.2125 208 282 C207.67 281.34 207.34 280.68 207 280 C205.36153616 279.11249875 203.68906261 278.28694963 202 277.5 C197.11111111 275.22222222 197.11111111 275.22222222 196 273 C194.02111039 272.27306096 192.02045442 271.60183749 190 271 C190 270.34 190 269.68 190 269 C189.01 269 188.02 269 187 269 C185.97895449 268.02149805 184.9793879 267.02019573 184 266 C183.01 265.67 182.02 265.34 181 265 C181 264.34 181 263.68 181 263 C180.278125 262.9175 179.55625 262.835 178.8125 262.75 C175.40678783 261.84181009 173.69949062 260.23860198 171 258 C170.08863281 257.55269531 169.17726563 257.10539062 168.23828125 256.64453125 C164.77538391 254.88593079 161.77845761 252.82642296 158.625 250.5625 C153.92088061 247.22915306 149.26022637 244.37225895 144 242 C144 241.34 144 240.68 144 240 C142.35 239.67 140.7 239.34 139 239 C139 238.34 139 237.68 139 237 C137.88625 236.8453125 137.88625 236.8453125 136.75 236.6875 C133.8026481 235.95066203 132.21616926 235.05200858 130 233 C130 232.34 130 231.68 130 231 C129.0925 230.9175 128.185 230.835 127.25 230.75 C123.44202246 229.87123595 122.66838359 228.74686546 120 226 C117.39994917 224.51927607 114.72121005 223.24171721 112 222 C112 221.34 112 220.68 112 220 C110.35 219.67 108.7 219.34 107 219 C107 218.34 107 217.68 107 217 C105.88625 216.8453125 105.88625 216.8453125 104.75 216.6875 C101.8026481 215.95066203 100.21616926 215.05200858 98 213 C98 212.34 98 211.68 98 211 C96.02 210.67 94.04 210.34 92 210 C92 209.34 92 208.68 92 208 C91.319375 207.7525 90.63875 207.505 89.9375 207.25 C86.43134917 205.75802092 83.28379632 203.93164489 80 202 C80 201.34 80 200.68 80 200 C78.35 199.67 76.7 199.34 75 199 C75 198.34 75 197.68 75 197 C73.02 196.67 71.04 196.34 69 196 C69 195.01 69 194.02 69 193 C68.443125 192.87625 67.88625 192.7525 67.3125 192.625 C64.77885636 191.94023145 62.42078968 191.00866237 60 190 C60 189.34 60 188.68 60 188 C59.01 187.67 58.02 187.34 57 187 C57 186.34 57 185.68 57 185 C55.02 184.67 53.04 184.34 51 184 C51 183.34 51 182.68 51 182 C49.68 181.67 48.36 181.34 47 181 C47 180.34 47 179.68 47 179 C46.46375 178.9175 45.9275 178.835 45.375 178.75 C42.10209837 177.71645212 39.70530621 176.09046389 37 174 C37 173.01 37 172.02 37 171 C35.02 170.67 33.04 170.34 31 170 C31 169.34 31 168.68 31 168 C30.2575 167.9175 29.515 167.835 28.75 167.75 C25.43964342 166.84717548 24.35665351 165.43029893 22 163 C19.36777038 161.74563813 19.36777038 161.74563813 17 161 C17 160.34 17 159.68 17 159 C16.01 158.67 15.02 158.34 14 158 C14 157.34 14 156.68 14 156 C13.443125 155.9175 12.88625 155.835 12.3125 155.75 C9.26322081 154.76104459 7.34810037 153.15242534 5 151 C5 150.34 5 149.68 5 149 C2.03 148.01 2.03 148.01 -1 147 C-1 146.34 -1 145.68 -1 145 C-2.65 144.34 -4.3 143.68 -6 143 C-6 142.34 -6 141.68 -6 141 C-6.61875 140.690625 -7.2375 140.38125 -7.875 140.0625 C-9.25 139.375 -10.625 138.6875 -12 138 C-12 137.34 -12 136.68 -12 136 C-12.66 136.66 -13.32 137.32 -14 138 C-13.80664062 138.64066406 -13.61328125 139.28132812 -13.4140625 139.94140625 C-12.87040419 141.74732075 -12.33162704 143.55470949 -11.796875 145.36328125 C-11.19971393 147.33918186 -10.55021077 149.29939112 -9.875 151.25 C-8.51131181 157.09437796 -8.31522639 163.01899407 -8 169 C-7.34 169 -6.68 169 -6 169 C-6 169.66 -6 170.32 -6 171 C-6.66 171 -7.32 171 -8 171 C-8 171.66 -8 172.32 -8 173 C-7.34 173 -6.68 173 -6 173 C-4.79431947 177.67201205 -4.90617574 182.21496292 -5 187 C-4.34 187 -3.68 187 -3 187 C-2.15199233 194.692641 -1.87847513 202.26291674 -2 210 C-1.34 210 -0.68 210 0 210 C0.05534912 210.99443115 0.11069824 211.9888623 0.16772461 213.01342773 C0.37362652 216.69062576 0.58565079 220.36744928 0.79956055 224.04418945 C0.89141146 225.63784342 0.98158481 227.23159497 1.07006836 228.82543945 C1.19728394 231.11176635 1.33045965 233.39767843 1.46484375 235.68359375 C1.50343002 236.40026718 1.5420163 237.11694061 1.58177185 237.85533142 C1.512114 241.21732982 1.512114 241.21732982 3 244 C3.19172324 245.68290398 3.32603863 247.37238167 3.4375 249.0625 C3.80466039 253.98711152 4.34766369 258.85506158 5 263.75 C5.91201435 270.65179782 6.40842776 277.52468922 6.75390625 284.4765625 C6.93355004 287.88080016 6.93355004 287.88080016 7.46484375 290.734375 C8.44225592 296.69872955 8.77065649 302.74387215 9.25 308.765625 C9.3325 309.76335937 9.415 310.76109375 9.5 311.7890625 C9.5721875 312.69350098 9.644375 313.59793945 9.71875 314.52978516 C9.93626814 316.93468335 9.93626814 316.93468335 10.5 318.96826172 C11.13582431 321.5519189 11.30862998 324.06519964 11.5 326.71875 C11.5825 327.81574219 11.665 328.91273438 11.75 330.04296875 C11.91666667 332.34765625 12.08333333 334.65234375 12.25 336.95703125 C12.3325 338.05402344 12.415 339.15101563 12.5 340.28125 C12.5721875 341.28220703 12.644375 342.28316406 12.71875 343.31445312 C12.9233365 345.8981035 12.9233365 345.8981035 13.5 347.95239258 C14.19190066 350.78587442 14.31667556 353.57080703 14.5 356.48046875 C14.5825 357.72634766 14.665 358.97222656 14.75 360.25585938 C14.91740883 362.88862479 15.08406896 365.52143791 15.25 368.15429688 C15.3325 369.39630859 15.415 370.63832031 15.5 371.91796875 C15.5721875 373.06031982 15.644375 374.2026709 15.71875 375.37963867 C15.71456779 377.92376995 15.71456779 377.92376995 17 379 C17.21589457 381.94156352 17.37714448 384.8667596 17.5 387.8125 C17.58204956 389.54563417 17.66538351 391.27870801 17.75 393.01171875 C17.79125 393.86169434 17.8325 394.71166992 17.875 395.58740234 C17.56788139 403.79848124 17.56788139 403.79848124 20 411 C20.22875032 412.87605333 20.39529428 414.75976563 20.53515625 416.64453125 C20.62216797 417.79630859 20.70917969 418.94808594 20.79882812 420.13476562 C20.9293457 421.95524414 20.9293457 421.95524414 21.0625 423.8125 C21.15337891 425.01455078 21.24425781 426.21660156 21.33789062 427.45507812 C21.67388621 431.98470285 22 436.45623534 22 441 C22.28675867 442.56742846 22.60245821 444.12967796 22.9375 445.6875 C24.04630343 451.47357986 24.40289356 457.19996988 24.65795898 463.07299805 C24.82876694 466.82338439 25.23337394 470.33198914 26 474 C26.89175212 483.33587402 27.14226267 492.62647068 27 502 C27.66 502 28.32 502 29 502 C32.22586161 530.595761 32.22586161 530.595761 32.7890625 543.77734375 C32.9198868 546.87859769 32.9198868 546.87859769 33.48413086 549.39379883 C33.98386075 551.91846355 34.26130353 554.35781638 34.46484375 556.921875 C34.54162354 557.85660645 34.61840332 558.79133789 34.69750977 559.75439453 C34.77670654 560.74294434 34.85590332 561.73149414 34.9375 562.75 C35.53068018 569.89177689 36.18328051 577.01252041 37.0625 584.125 C38.0807938 592.38820377 39 600.66689002 39 609 C39.33 609.99 39.66 610.98 40 612 C40.20445627 613.85820931 40.36537835 615.72136752 40.5 617.5859375 C40.5825 618.68164062 40.665 619.77734375 40.75 620.90625 C40.8325 622.0509375 40.915 623.195625 41 624.375 C41.16384717 626.63301886 41.33041538 628.89084229 41.5 631.1484375 C41.5721875 632.15052246 41.644375 633.15260742 41.71875 634.18505859 C41.94811933 636.95554634 41.94811933 636.95554634 42.5 639.46826172 C43.08635113 642.43723693 43.30158013 645.33967265 43.5 648.359375 C43.5825 649.55691406 43.665 650.75445313 43.75 651.98828125 C43.91770054 654.51165025 44.08435456 657.03508901 44.25 659.55859375 C44.3325 660.75097656 44.415 661.94335938 44.5 663.171875 C44.5721875 664.2659668 44.644375 665.36005859 44.71875 666.48730469 C44.72824557 668.93626624 44.72824557 668.93626624 46 670 C46.14441944 671.33141319 46.22692767 672.66969175 46.28125 674.0078125 C46.31863281 674.83023438 46.35601562 675.65265625 46.39453125 676.5 C46.42933594 677.36625 46.46414062 678.2325 46.5 679.125 C46.81634965 689.20528109 46.81634965 689.20528109 49 699 C48.34 699 47.68 699 47 699 C47 699.99 47 700.98 47 702 C47.66 702 48.32 702 49 702 C49.05534912 702.7520874 49.11069824 703.5041748 49.16772461 704.27905273 C49.41959717 707.66557229 49.67845339 711.05152199 49.9375 714.4375 C50.06801758 716.21350586 50.06801758 716.21350586 50.20117188 718.02539062 C50.28818359 719.15009766 50.37519531 720.27480469 50.46484375 721.43359375 C50.543396 722.47572021 50.62194824 723.51784668 50.70288086 724.59155273 C50.74286879 726.94793895 50.74286879 726.94793895 52 728 C52.24403215 730.90127111 52.42707066 733.78063577 52.5625 736.6875 C52.6049585 737.53932861 52.64741699 738.39115723 52.69116211 739.26879883 C53.0286407 746.5174588 53.10653899 753.74351111 53 761 C53.66 761 54.32 761 55 761 C55.04898438 762.18335938 55.09796875 763.36671875 55.1484375 764.5859375 C55.50974794 774.58138461 55.50974794 774.58138461 57.0625 784.4375 C58.21706645 789.61067371 58.97436517 794.73842806 58 800 C55.79560982 803.33976171 52.95596454 804.72983611 49.125 805.8125 C48.073125 805.9053125 48.073125 805.9053125 47 806 C46.67 806.99 46.34 807.98 46 809 C43.56640625 810.53515625 43.56640625 810.53515625 40.5625 812.0625 C36.48129609 814.11709859 36.48129609 814.11709859 33 817 C32.01 817 31.02 817 30 817 C30 817.66 30 818.32 30 819 C28.02 819.33 26.04 819.66 24 820 C23.67 820.99 23.34 821.98 23 823 C22.01 823 21.02 823 20 823 C20 823.66 20 824.32 20 825 C18.68 825.33 17.36 825.66 16 826 C16 826.66 16 827.32 16 828 C14.71086513 828.67154933 13.41859796 829.33708859 12.125 830 C11.40570313 830.37125 10.68640625 830.7425 9.9453125 831.125 C8 832 8 832 6 832 C6 832.66 6 833.32 6 834 C4.2675 834.8353125 4.2675 834.8353125 2.5 835.6875 C-1.28712619 837.56758578 -4.81145133 839.71593992 -8.3359375 842.046875 C-10 843 -10 843 -12 843 C-12 843.66 -12 844.32 -12 845 C-13.32 845.33 -14.64 845.66 -16 846 C-16 846.66 -16 847.32 -16 848 C-17.98 848.33 -19.96 848.66 -22 849 C-22 849.66 -22 850.32 -22 851 C-22.99 851.33 -23.98 851.66 -25 852 C-25.66515625 852.67289063 -25.66515625 852.67289063 -26.34375 853.359375 C-28.50033003 855.49560993 -30.85633362 856.7611984 -33.5 858.25 C-40.2555613 862.11731408 -46.80500426 866.26443975 -53.32421875 870.515625 C-54.37029297 871.18851563 -54.37029297 871.18851563 -55.4375 871.875 C-56.03433594 872.26429688 -56.63117188 872.65359375 -57.24609375 873.0546875 C-59.14191289 874.07648757 -60.89768206 874.56567498 -63 875 C-63 875.66 -63 876.32 -63 877 C-67.38095238 879.06878307 -67.38095238 879.06878307 -70.25 878.75 C-72 878 -72 878 -73 876 C-73.07092842 873.7927077 -73.08415025 871.58332548 -73.0625 869.375 C-73.05347656 868.18648437 -73.04445313 866.99796875 -73.03515625 865.7734375 C-73.02355469 864.85820313 -73.01195313 863.94296875 -73 863 C-73.66 863 -74.32 863 -75 863 C-75.02505615 862.43603516 -75.0501123 861.87207031 -75.07592773 861.29101562 C-75.19318301 858.69385118 -75.31531266 856.0969369 -75.4375 853.5 C-75.47681641 852.613125 -75.51613281 851.72625 -75.55664062 850.8125 C-75.81110346 845.48835461 -76.28877831 840.28186697 -77 835 C-77.3727622 831.79363346 -77.71861683 828.5845763 -78.0625 825.375 C-78.19881836 824.14523437 -78.19881836 824.14523437 -78.33789062 822.890625 C-78.71236144 819.38805592 -79.00000452 816.00407635 -78.99609375 812.4765625 C-78.70850572 810.05616409 -78.70850572 810.05616409 -80 809 C-80.216522 807.11182292 -80.37146355 805.21651208 -80.5 803.3203125 C-80.5825 802.16402344 -80.665 801.00773438 -80.75 799.81640625 C-80.8325 798.59824219 -80.915 797.38007812 -81 796.125 C-81.16313338 793.73152739 -81.329644 791.33828188 -81.5 788.9453125 C-81.5721875 787.87812988 -81.644375 786.81094727 -81.71875 785.71142578 C-81.91070614 782.90678066 -81.91070614 782.90678066 -83 780 C-83 778.68 -83 777.36 -83 776 C-83.26190917 771.66305861 -83.60624648 767.33213821 -83.9375 763 C-84.02451172 761.81148437 -84.11152344 760.62296875 -84.20117188 759.3984375 C-84.33168945 757.68527344 -84.33168945 757.68527344 -84.46484375 755.9375 C-84.543396 754.89464844 -84.62194824 753.85179687 -84.70288086 752.77734375 C-84.95607569 750.41058579 -85.41044132 748.29529909 -86 746 C-86 745.01 -86 744.02 -86 743 C-86.15974618 741.22852896 -86.32752376 739.45777693 -86.5 737.6875 C-87.09980226 730.78555001 -87.09216823 723.92285841 -87 717 C-87.66 717 -88.32 717 -89 717 C-89.614687 705.99051677 -90.18115526 695.03034265 -90 684 C-90.66 684 -91.32 684 -92 684 C-92.09087891 682.16888672 -92.09087891 682.16888672 -92.18359375 680.30078125 C-91.55637547 664.68953597 -91.55637547 664.68953597 -95 651 C-95.21499839 648.01689729 -95.3771362 645.04966123 -95.5 642.0625 C-95.7753878 635.97846947 -96.10271806 629.95138313 -96.9140625 623.91015625 C-97.01074798 621.76110164 -96.61508891 620.05182645 -96 618 C-96.66 618 -97.32 618 -98 618 C-98.029729 617.16976318 -98.029729 617.16976318 -98.06005859 616.32275391 C-98.54147006 602.04213829 -98.54147006 602.04213829 -101 588 C-100.34 588 -99.68 588 -99 588 C-99.66 587.01 -100.32 586.02 -101 585 C-101.37890625 582.14453125 -101.37890625 582.14453125 -101.5625 578.8125 C-101.89785512 573.36199732 -101.89785512 573.36199732 -102.5 567.9375 C-103.32523992 561.43873559 -103.79934432 554.9095073 -104.25 548.375 C-104.3325 547.199375 -104.415 546.02375 -104.5 544.8125 C-104.60828125 543.18248047 -104.60828125 543.18248047 -104.71875 541.51953125 C-104.72737467 539.06452654 -104.72737467 539.06452654 -106 538 C-106.21700552 535.2663333 -106.37784225 532.55077695 -106.5 529.8125 C-106.58256646 528.17444033 -106.66590969 526.53641965 -106.75 524.8984375 C-106.79125 524.07698242 -106.8325 523.25552734 -106.875 522.40917969 C-107.05622168 518.91641493 -107.26973698 515.42742394 -107.5 511.9375 C-107.5721875 510.81214844 -107.644375 509.68679688 -107.71875 508.52734375 C-107.72637979 506.06543269 -107.72637979 506.06543269 -109 505 C-109.14441944 503.66858681 -109.22692767 502.33030825 -109.28125 500.9921875 C-109.31863281 500.16976563 -109.35601562 499.34734375 -109.39453125 498.5 C-109.42933594 497.63375 -109.46414062 496.7675 -109.5 495.875 C-109.73516875 490.17869023 -110.1382524 484.64444677 -111 479 C-111 478.01 -111 477.02 -111 476 C-111.2974642 473.55963836 -111.61151855 471.1240245 -111.9375 468.6875 C-113.08603084 459.82740494 -114 450.94356772 -114 442 C-114.33 441.34 -114.66 440.68 -115 440 C-116.01402055 431.0240403 -116.13488624 422.02239068 -116 413 C-116.66 413 -117.32 413 -118 413 C-118 411.68 -118 410.36 -118 409 C-117.34 409 -116.68 409 -116 409 C-116 408.34 -116 407.68 -116 407 C-116.66 407 -117.32 407 -118 407 C-118.06058594 406.12859375 -118.12117188 405.2571875 -118.18359375 404.359375 C-118.44998769 400.57248264 -118.72388385 396.78619548 -119 393 C-119.08378906 391.82308594 -119.16757813 390.64617187 -119.25390625 389.43359375 C-119.33511719 388.36238281 -119.41632813 387.29117187 -119.5 386.1875 C-119.5721875 385.21167969 -119.644375 384.23585938 -119.71875 383.23046875 C-119.76454251 381.03109426 -119.76454251 381.03109426 -121 380 C-121.15706583 378.66652792 -121.25085022 377.32546406 -121.31640625 375.984375 C-121.35838135 375.15067383 -121.40035645 374.31697266 -121.44360352 373.45800781 C-121.48283936 372.56436523 -121.5220752 371.67072266 -121.5625 370.75 C-121.6049585 369.84862305 -121.64741699 368.94724609 -121.69116211 368.01855469 C-122.00196828 361.00696755 -122.11526863 354.01857866 -122 347 C-122.66 347 -123.32 347 -124 347 C-124.09087891 345.04320312 -124.09087891 345.04320312 -124.18359375 343.046875 C-123.45196365 327.50247866 -123.45196365 327.50247866 -127 314 C-127.23968924 310.16497219 -127.3947653 306.3362411 -127.51757812 302.49609375 C-127.72285821 297.54613242 -128.37239404 293.03308515 -129.53881836 288.22363281 C-130.31792958 284.46707115 -130.42798953 280.70034647 -130.5625 276.875 C-130.77651742 271.51090373 -131.1865207 266.31599262 -132 261 C-132.18498594 259.14757132 -132.35217245 257.29326368 -132.5 255.4375 C-132.5825 254.41914063 -132.665 253.40078125 -132.75 252.3515625 C-132.92903227 249.95141119 -133.0941045 247.55020257 -133.25 245.1484375 C-133.3325 243.88257813 -133.415 242.61671875 -133.5 241.3125 C-133.5721875 240.13300781 -133.644375 238.95351563 -133.71875 237.73828125 C-133.69967511 235.08993853 -133.69967511 235.08993853 -135 234 C-135.21635631 231.07918982 -135.37744929 228.17506259 -135.5 225.25 C-135.58223469 223.51817665 -135.66557348 221.78640538 -135.75 220.0546875 C-135.79125 219.19842773 -135.8325 218.34216797 -135.875 217.45996094 C-136.04599776 214.09477854 -136.26045857 210.73606576 -136.5 207.375 C-136.5721875 206.35148438 -136.644375 205.32796875 -136.71875 204.2734375 C-136.7589688 202.03605059 -136.7589688 202.03605059 -138 201 C-138.21635631 198.07918982 -138.37744929 195.17506259 -138.5 192.25 C-138.58223469 190.51817665 -138.66557348 188.78640538 -138.75 187.0546875 C-138.79125 186.19842773 -138.8325 185.34216797 -138.875 184.45996094 C-139.04599776 181.09477854 -139.26045857 177.73606576 -139.5 174.375 C-139.5721875 173.35148438 -139.644375 172.32796875 -139.71875 171.2734375 C-139.7589688 169.03605059 -139.7589688 169.03605059 -141 168 C-141.13269807 166.60676358 -141.20327511 165.20748012 -141.24609375 163.80859375 C-141.27896484 162.94556641 -141.31183594 162.08253906 -141.34570312 161.19335938 C-141.40598699 159.38356073 -141.46337095 157.57366272 -141.51757812 155.76367188 C-141.68364081 151.52437342 -141.98400866 147.61062658 -143.08984375 143.50390625 C-144 140 -144 140 -143.125 137.5 C-142.75375 137.005 -142.3825 136.51 -142 136 C-142.66 136 -143.32 136 -144 136 C-144.01981934 135.44650879 -144.03963867 134.89301758 -144.06005859 134.32275391 C-144.41907158 120.94266012 -144.41907158 120.94266012 -146.59765625 107.77734375 C-147 106 -147 106 -147 103 C-147.15745034 100.2699236 -147.32363802 97.54134412 -147.5 94.8125 C-147.54769531 94.06291016 -147.59539062 93.31332031 -147.64453125 92.54101562 C-147.76217832 90.69395656 -147.88097771 88.84697096 -148 87 C-146.515 86.505 -146.515 86.505 -145 86 C-145 85.34 -145 84.68 -145 84 C-143.02 83.505 -143.02 83.505 -141 83 C-141 82.34 -141 81.68 -141 81 C-140.41992188 80.68546875 -139.83984375 80.3709375 -139.2421875 80.046875 C-135.62989472 78.06786312 -132.06561362 76.11207431 -128.6875 73.75 C-126 72 -126 72 -123.9375 71.5625 C-121.7321161 71.09526746 -121.7321161 71.09526746 -119.8125 68.75 C-116.79982673 65.80427503 -113.9108747 64.14646241 -110.21484375 62.203125 C-108.24492828 61.13304746 -106.45177158 59.98127339 -104.625 58.6875 C-102 57 -102 57 -99 57 C-99 56.34 -99 55.68 -99 55 C-92.375 51 -92.375 51 -89 51 C-89 50.34 -89 49.68 -89 49 C-87.20703125 47.5625 -87.20703125 47.5625 -84.8125 46 C-84.03519531 45.484375 -83.25789063 44.96875 -82.45703125 44.4375 C-79.10131942 42.47422185 -75.67892072 41.22630691 -72 40 C-72 39.34 -72 38.68 -72 38 C-69.4453125 36.2734375 -69.4453125 36.2734375 -66.125 34.375 C-65.03445312 33.74335937 -63.94390625 33.11171875 -62.8203125 32.4609375 C-60 31 -60 31 -58 31 C-58 30.34 -58 29.68 -58 29 C-56.02 28.67 -54.04 28.34 -52 28 C-52 27.34 -52 26.68 -52 26 C-49.953125 24.52734375 -49.953125 24.52734375 -47.25 22.9375 C-46.36828125 22.41027344 -45.4865625 21.88304688 -44.578125 21.33984375 C-42 20 -42 20 -39.734375 19.50390625 C-39.16203125 19.33761719 -38.5896875 19.17132813 -38 19 C-37.505 17.515 -37.505 17.515 -37 16 C-35.2578125 14.8671875 -35.2578125 14.8671875 -33.125 13.875 C-32.42632812 13.54242188 -31.72765625 13.20984375 -31.0078125 12.8671875 C-29 12 -29 12 -26 11 C-26 10.34 -26 9.68 -26 9 C-23.525 8.505 -23.525 8.505 -21 8 C-21 7.34 -21 6.68 -21 6 C-14.375 2 -14.375 2 -11 2 C-11 1.34 -11 0.68 -11 0 C-7.52880239 -1.7355988 -3.70952174 -0.75771758 0 0 Z " fill="#000000" transform="translate(165,38)"/>
<path d="M0 0 C2.5703125 1.55859375 2.5703125 1.55859375 5.125 3.4375 C5.97320313 4.05496094 6.82140625 4.67242187 7.6953125 5.30859375 C8.45585938 5.86675781 9.21640625 6.42492188 10 7 C10.99 7.66 11.98 8.32 13 9 C13 9.66 13 10.32 13 11 C14.32 11.33 15.64 11.66 17 12 C17 12.66 17 13.32 17 14 C17.7425 14.0825 18.485 14.165 19.25 14.25 C22.56035658 15.15282452 23.64334649 16.56970107 26 19 C28.63222962 20.25436187 28.63222962 20.25436187 31 21 C31 21.66 31 22.32 31 23 C31.99 23.33 32.98 23.66 34 24 C34 24.66 34 25.32 34 26 C36.65228812 27.07525194 39.28368454 28.09456151 42 29 C42 29.66 42 30.32 42 31 C42.99 31.33 43.98 31.66 45 32 C45 32.66 45 33.32 45 34 C45.7321875 34.09539062 46.464375 34.19078125 47.21875 34.2890625 C50.39609298 35.10124849 51.99598039 36.285378 54.5 38.375 C56.70712618 40.2013192 58.80537845 41.88496596 61.2734375 43.34375 C65.86772661 46.13455026 70.03617844 49.51792467 74.29296875 52.79296875 C74.98261719 53.31761719 75.67226562 53.84226563 76.3828125 54.3828125 C77.00559082 54.86121582 77.62836914 55.33961914 78.27001953 55.83251953 C80.10687757 57.18482559 80.10687757 57.18482559 83 58 C83 58.66 83 59.32 83 60 C83.99 60 84.98 60 86 60 C86.66 60.99 87.32 61.98 88 63 C88.99 63.33 89.98 63.66 91 64 C91 64.66 91 65.32 91 66 C93.475 66.495 93.475 66.495 96 67 C96.33 67.99 96.66 68.98 97 70 C97.99 70 98.98 70 100 70 C100 70.66 100 71.32 100 72 C100.5775 72.103125 101.155 72.20625 101.75 72.3125 C104.35661158 73.10896465 105.9735311 74.19065277 108 76 C108 76.66 108 77.32 108 78 C108.53625 78.0825 109.0725 78.165 109.625 78.25 C112.85995815 79.27156573 115.22573148 81.05801203 118 83 C119.670625 84.051875 119.670625 84.051875 121.375 85.125 C122.24125 85.74375 123.1075 86.3625 124 87 C124 87.66 124 88.32 124 89 C124.721875 89.061875 125.44375 89.12375 126.1875 89.1875 C130.03860264 90.30004076 131.54298347 91.84577878 134 95 C134.06769267 97.89232332 133.91490071 99.97513869 133.375 102.75 C133.14408954 104.17440763 132.91361809 105.5988865 132.68359375 107.0234375 C132.5635498 107.70631836 132.44350586 108.38919922 132.31982422 109.09277344 C131.91422408 111.5115126 131.6641428 113.93361969 131.4375 116.375 C131 120 131 120 130 122 C129.72468441 123.52000153 129.49131439 125.04774064 129.28125 126.578125 C129.15363281 127.49207031 129.02601563 128.40601563 128.89453125 129.34765625 C128.76433594 130.30542969 128.63414062 131.26320312 128.5 132.25 C128.24020556 134.13029441 127.97980451 136.01050512 127.71875 137.890625 C127.59628906 138.77427734 127.47382812 139.65792969 127.34765625 140.56835938 C126.94463809 143.38722236 126.48948154 146.19489424 126 149 C125.34 149 124.68 149 124 149 C123.93941406 150.21558594 123.87882812 151.43117187 123.81640625 152.68359375 C123.73201668 154.26824228 123.6473679 155.85287702 123.5625 157.4375 C123.50352539 158.64116211 123.50352539 158.64116211 123.44335938 159.86914062 C123.11328125 165.88671875 123.11328125 165.88671875 122 167 C121.78529555 168.54617025 121.62934778 170.10061199 121.5 171.65625 C121.4175 172.59597656 121.335 173.53570312 121.25 174.50390625 C121.1675 175.49261719 121.085 176.48132813 121 177.5 C120.83743307 179.4482631 120.67097771 181.396207 120.5 183.34375 C120.4278125 184.21193359 120.355625 185.08011719 120.28125 185.97460938 C120 188 120 188 119 189 C118.77285996 190.63066766 118.60544914 192.26976003 118.46484375 193.91015625 C118.37783203 194.89951172 118.29082031 195.88886719 118.20117188 196.90820312 C118.11416016 197.94912109 118.02714844 198.99003906 117.9375 200.0625 C117.84662109 201.10728516 117.75574219 202.15207031 117.66210938 203.22851562 C117.43739092 205.8186915 117.2168769 208.40915767 117 211 C116.34 211 115.68 211 115 211 C115.01160156 211.67804688 115.02320313 212.35609375 115.03515625 213.0546875 C115.09708351 219.44204207 114.77018868 225.65969676 114 232 C113.34 232 112.68 232 112 232 C112.01160156 232.75023437 112.02320313 233.50046875 112.03515625 234.2734375 C112.09331243 240.87000955 112.10777493 247.47643651 111 254 C110.67 254.33 110.34 254.66 110 255 C109.78619142 256.3880854 109.62975151 257.78514471 109.5 259.18359375 C109.4175 260.02857422 109.335 260.87355469 109.25 261.74414062 C109.1675 262.63294922 109.085 263.52175781 109 264.4375 C108.83694327 266.18653822 108.67043929 267.93525951 108.5 269.68359375 C108.4278125 270.46275146 108.355625 271.24190918 108.28125 272.04467773 C108 274 108 274 107 276 C106.72754435 278.20126863 106.5553267 280.40239519 106.37890625 282.61328125 C106 285 106 285 105.03125 287.21875 C103.57653024 291.14208512 103.31819848 295.03954178 102.9375 299.1875 C102.12172012 307.75655977 102.12172012 307.75655977 101 310 C100.7724985 311.87056791 100.59037189 313.74685958 100.4375 315.625 C100.35371094 316.62789063 100.26992187 317.63078125 100.18359375 318.6640625 C100.12300781 319.43492187 100.06242187 320.20578125 100 321 C99.34 321 98.68 321 98 321 C98.01160156 321.66644531 98.02320313 322.33289063 98.03515625 323.01953125 C98.10059461 329.7035921 97.98984483 336.37659383 97 343 C96.67 343.33 96.34 343.66 96 344 C95.77329092 345.55753051 95.60564908 347.12377359 95.46484375 348.69140625 C95.37783203 349.63564453 95.29082031 350.57988281 95.20117188 351.55273438 C95.11416016 352.54595703 95.02714844 353.53917969 94.9375 354.5625 C94.84662109 355.55958984 94.75574219 356.55667969 94.66210938 357.58398438 C94.43741186 360.05565702 94.21689649 362.52763256 94 365 C93.34 365 92.68 365 92 365 C92.01160156 365.66644531 92.02320313 366.33289063 92.03515625 367.01953125 C92.10097366 373.74230945 91.72383639 380.317439 91 387 C90.34 387 89.68 387 89 387 C89.01160156 387.67804688 89.02320313 388.35609375 89.03515625 389.0546875 C89.09662786 395.39504455 89.04514697 401.72911815 88 408 C87.67 408.33 87.34 408.66 87 409 C86.55059951 412.27420355 86.18179277 415.54747604 85.83789062 418.83398438 C85.34814204 423.1461609 84.40857099 426.87611144 83 431 C82.73004677 432.95079406 82.51871703 434.9108672 82.375 436.875 C82.30023437 437.84179688 82.22546875 438.80859375 82.1484375 439.8046875 C82.09945312 440.52914063 82.05046875 441.25359375 82 442 C81.34 442 80.68 442 80 442 C80.01160156 442.75023437 80.02320313 443.50046875 80.03515625 444.2734375 C80.09331243 450.87000955 80.10777493 457.47643651 79 464 C78.67 464.33 78.34 464.66 78 465 C77.78619142 466.3880854 77.62975151 467.78514471 77.5 469.18359375 C77.4175 470.02857422 77.335 470.87355469 77.25 471.74414062 C77.1675 472.63294922 77.085 473.52175781 77 474.4375 C76.83694327 476.18653822 76.67043929 477.93525951 76.5 479.68359375 C76.4278125 480.46275146 76.355625 481.24190918 76.28125 482.04467773 C76 484 76 484 75 486 C74.77141886 488.0374763 74.58975722 490.08040303 74.4375 492.125 C74.35371094 493.22070312 74.26992187 494.31640625 74.18359375 495.4453125 C74.12300781 496.28835938 74.06242187 497.13140625 74 498 C73.34 498 72.68 498 72 498 C72.01160156 498.66644531 72.02320313 499.33289063 72.03515625 500.01953125 C72.10097366 506.74230945 71.72383639 513.317439 71 520 C70.34 520 69.68 520 69 520 C69.01160156 520.67804687 69.02320313 521.35609375 69.03515625 522.0546875 C69.09708351 528.44204207 68.77018868 534.65969676 68 541 C67.34 541 66.68 541 66 541 C66.01160156 541.67804687 66.02320313 542.35609375 66.03515625 543.0546875 C66.12268172 552.08231461 65.66708182 560.33198407 63 569 C62.63729412 570.99488234 62.29359301 572.9937811 62 575 C61.34 575 60.68 575 60 575 C60.01160156 575.67804687 60.02320313 576.35609375 60.03515625 577.0546875 C60.19565217 593.60869565 60.19565217 593.60869565 58 598 C57.78058781 599.5912342 57.60940148 601.18929031 57.46484375 602.7890625 C57.37783203 603.73007812 57.29082031 604.67109375 57.20117188 605.640625 C57.11416016 606.62546875 57.02714844 607.6103125 56.9375 608.625 C56.84662109 609.61757813 56.75574219 610.61015625 56.66210938 611.6328125 C56.43781564 614.08823868 56.21726893 616.54394389 56 619 C55.34 619 54.68 619 54 619 C54.01160156 619.67804687 54.02320313 620.35609375 54.03515625 621.0546875 C54.09662786 627.39504455 54.04514697 633.72911815 53 640 C52.67 640.33 52.34 640.66 52 641 C51.63969242 643.52215303 51.33351312 646.03037638 51.0625 648.5625 C50.8898948 650.1042308 50.71670228 651.64589594 50.54296875 653.1875 C50.45450684 653.98027344 50.36604492 654.77304687 50.27490234 655.58984375 C49.83828126 659.41783964 49.35796 663.24011723 48.875 667.0625 C48.74363647 668.10676147 48.74363647 668.10676147 48.60961914 669.17211914 C48.40699439 670.7814861 48.20359222 672.39075515 48 674 C47.34 674 46.68 674 46 674 C46.01160156 674.67804687 46.02320313 675.35609375 46.03515625 676.0546875 C46.09662786 682.39504455 46.04514697 688.72911815 45 695 C44.67 695.33 44.34 695.66 44 696 C43.64685537 698.16041421 43.34315552 700.32897877 43.0625 702.5 C42.50182721 706.63391577 41.91505386 710.693881 40.9375 714.75 C39.95789724 718.82147396 39.5615201 722.85989744 39.24609375 727.03125 C39 729 39 729 38 730 C37.78529555 731.54617025 37.62934778 733.10061199 37.5 734.65625 C37.4175 735.59597656 37.335 736.53570313 37.25 737.50390625 C37.12625 738.98697266 37.12625 738.98697266 37 740.5 C36.83743307 742.4482631 36.67097771 744.396207 36.5 746.34375 C36.4278125 747.21193359 36.355625 748.08011719 36.28125 748.97460938 C36 751 36 751 35 752 C34.78529555 753.54617025 34.62934778 755.10061199 34.5 756.65625 C34.4175 757.59597656 34.335 758.53570313 34.25 759.50390625 C34.12625 760.98697266 34.12625 760.98697266 34 762.5 C33.83743307 764.4482631 33.67097771 766.396207 33.5 768.34375 C33.4278125 769.21193359 33.355625 770.08011719 33.28125 770.97460938 C33 773 33 773 32 774 C31.77329092 775.55753051 31.60564908 777.12377359 31.46484375 778.69140625 C31.37783203 779.63564453 31.29082031 780.57988281 31.20117188 781.55273438 C31.11416016 782.54595703 31.02714844 783.53917969 30.9375 784.5625 C30.84662109 785.55958984 30.75574219 786.55667969 30.66210938 787.58398438 C30.43741186 790.05565702 30.21689649 792.52763256 30 795 C29.34 795 28.68 795 28 795 C28.05220703 795.93392578 28.05220703 795.93392578 28.10546875 796.88671875 C28.31748559 804.12557935 27.58945736 811.02791485 26.5625 818.1875 C26.360802 819.60518677 26.360802 819.60518677 26.1550293 821.05151367 C25.13480959 827.86519041 25.13480959 827.86519041 24 829 C23.79810541 830.36497088 23.65339684 831.73853542 23.53515625 833.11328125 C23.45716797 833.94923828 23.37917969 834.78519531 23.29882812 835.64648438 C23.142337 837.41185947 22.98865192 839.17748573 22.83789062 840.94335938 C22.75861328 841.78318359 22.67933594 842.62300781 22.59765625 843.48828125 C22.49723022 844.64130737 22.49723022 844.64130737 22.39477539 845.81762695 C21.96710724 848.18183572 21.11189516 849.88409653 20 852 C19.58565852 854.55248235 19.58565852 854.55248235 19.4375 857.1875 C19.09936909 861.90063091 19.09936909 861.90063091 18 863 C17.77428816 864.41120902 17.60611651 865.83176043 17.46484375 867.25390625 C17.37783203 868.10791016 17.29082031 868.96191406 17.20117188 869.84179688 C17.11416016 870.73962891 17.02714844 871.63746094 16.9375 872.5625 C16.84662109 873.46419922 16.75574219 874.36589844 16.66210938 875.29492188 C16.43746077 877.52958434 16.21694231 879.76457839 16 882 C12.24023438 883.11572266 12.24023438 883.11572266 10.078125 882.07421875 C9.47484375 881.61660156 8.8715625 881.15898438 8.25 880.6875 C7.63640625 880.23761719 7.0228125 879.78773438 6.390625 879.32421875 C5.93171875 878.88722656 5.4728125 878.45023438 5 878 C5 877.34 5 876.68 5 876 C4.46375 875.938125 3.9275 875.87625 3.375 875.8125 C-0.04369966 874.64294485 -2.26923885 872.32405204 -5 870 C-5.99 869.67 -6.98 869.34 -8 869 C-8 868.34 -8 867.68 -8 867 C-9.11375 866.87625 -9.11375 866.87625 -10.25 866.75 C-13.55699631 865.84809192 -14.68452365 864.46486192 -17 862 C-19.13309192 860.76487921 -19.13309192 860.76487921 -21 860 C-21 859.34 -21 858.68 -21 858 C-21.99 858 -22.98 858 -24 858 C-25 857 -26 856 -27 855 C-28.97620986 853.95377125 -30.9737129 852.94560065 -33 852 C-33 851.34 -33 850.68 -33 850 C-33.66 850 -34.32 850 -35 850 C-36 849 -37 848 -38 847 C-38.99 846.67 -39.98 846.34 -41 846 C-41 845.34 -41 844.68 -41 844 C-42.32 843.67 -43.64 843.34 -45 843 C-45 842.34 -45 841.68 -45 841 C-45.7425 840.71125 -46.485 840.4225 -47.25 840.125 C-49.56739797 839.17697356 -51.77917115 838.15154089 -54 837 C-54 836.34 -54 835.68 -54 835 C-54.57492187 834.72542969 -55.14984375 834.45085938 -55.7421875 834.16796875 C-59.70874579 832.11606403 -63.31421867 829.5122559 -67 827 C-67.92683594 826.37996094 -68.85367188 825.75992188 -69.80859375 825.12109375 C-71.17177734 824.19490234 -71.17177734 824.19490234 -72.5625 823.25 C-73.40941406 822.67765625 -74.25632812 822.1053125 -75.12890625 821.515625 C-75.74636719 821.01546875 -76.36382813 820.5153125 -77 820 C-77 819.34 -77 818.68 -77 818 C-78.65 817.67 -80.3 817.34 -82 817 C-82 816.34 -82 815.68 -82 815 C-83.65 814.67 -85.3 814.34 -87 814 C-87.33 813.01 -87.66 812.02 -88 811 C-88.66 811 -89.32 811 -90 811 C-90 810.34 -90 809.68 -90 809 C-91.11375 808.8453125 -91.11375 808.8453125 -92.25 808.6875 C-95.1973519 807.95066203 -96.78383074 807.05200858 -99 805 C-99 804.34 -99 803.68 -99 803 C-99.598125 802.87625 -100.19625 802.7525 -100.8125 802.625 C-103 802 -103 802 -106 800 C-105.67 795.38 -105.34 790.76 -105 786 C-104.34 786 -103.68 786 -103 786 C-103.01160156 785.33355469 -103.02320313 784.66710937 -103.03515625 783.98046875 C-103.10097366 777.25769055 -102.72383639 770.682561 -102 764 C-101.34 764 -100.68 764 -100 764 C-100.03480469 763.33355469 -100.06960938 762.66710937 -100.10546875 761.98046875 C-100.28772288 755.77514944 -99.54521667 750.71237099 -97.734375 744.79296875 C-96.54183541 740.25751231 -96.26190542 735.66914138 -96 731 C-95.34 731 -94.68 731 -94 731 C-94.01160156 730.24976563 -94.02320313 729.49953125 -94.03515625 728.7265625 C-94.09331243 722.12999045 -94.10777493 715.52356349 -93 709 C-92.67 708.67 -92.34 708.34 -92 708 C-91.77329092 706.44246949 -91.60564908 704.87622641 -91.46484375 703.30859375 C-91.37783203 702.36435547 -91.29082031 701.42011719 -91.20117188 700.44726562 C-91.11416016 699.45404297 -91.02714844 698.46082031 -90.9375 697.4375 C-90.84662109 696.44041016 -90.75574219 695.44332031 -90.66210938 694.41601562 C-90.43741186 691.94434298 -90.21689649 689.47236744 -90 687 C-89.34 687 -88.68 687 -88 687 C-88.02320313 686.32195313 -88.04640625 685.64390625 -88.0703125 684.9453125 C-88.2059151 677.95209255 -88.19822195 670.3964439 -85 664 C-84.68954474 661.40856095 -84.49026088 658.81628268 -84.28125 656.21484375 C-84 654 -84 654 -83 653 C-82.78619142 651.6119146 -82.62975151 650.21485529 -82.5 648.81640625 C-82.4175 647.97142578 -82.335 647.12644531 -82.25 646.25585938 C-82.1675 645.36705078 -82.085 644.47824219 -82 643.5625 C-81.83694327 641.81346178 -81.67043929 640.06474049 -81.5 638.31640625 C-81.4278125 637.53724854 -81.355625 636.75809082 -81.28125 635.95532227 C-81 634 -81 634 -80 632 C-79.68744353 629.14792222 -79.48962518 626.29503146 -79.28125 623.43359375 C-79 621 -79 621 -78 620 C-77.78529555 618.45382975 -77.62934778 616.89938801 -77.5 615.34375 C-77.4175 614.40402344 -77.335 613.46429687 -77.25 612.49609375 C-77.12625 611.01302734 -77.12625 611.01302734 -77 609.5 C-76.83743307 607.5517369 -76.67097771 605.603793 -76.5 603.65625 C-76.4278125 602.78806641 -76.355625 601.91988281 -76.28125 601.02539062 C-76 599 -76 599 -75 598 C-74.64866469 595.79751144 -74.34429763 593.58746072 -74.0625 591.375 C-73.54848953 587.56978818 -73.01831394 584.06248286 -71.9375 580.375 C-70.53541417 575.32749101 -70.32532374 570.21374093 -70 565 C-69.34 565 -68.68 565 -68 565 C-68.01160156 564.33355469 -68.02320313 563.66710937 -68.03515625 562.98046875 C-68.10097366 556.25769055 -67.72383639 549.682561 -67 543 C-66.34 543 -65.68 543 -65 543 C-65.01160156 542.32195313 -65.02320313 541.64390625 -65.03515625 540.9453125 C-65.09708351 534.55795793 -64.77018868 528.34030324 -64 522 C-63.34 522 -62.68 522 -62 522 C-62.05220703 521.01773437 -62.05220703 521.01773437 -62.10546875 520.015625 C-62.29654849 513.57350817 -61.45322364 508.14075966 -59.73046875 501.9453125 C-58.8159533 498.25790797 -58.46434251 494.64625603 -58.2109375 490.86328125 C-58 489 -58 489 -57 488 C-56.64095547 485.29057152 -56.33475986 482.59344405 -56.0625 479.875 C-55.88924074 478.23815166 -55.71473989 476.60143432 -55.5390625 474.96484375 C-55.45043945 474.13710449 -55.36181641 473.30936523 -55.27050781 472.45654297 C-54.86546342 468.7782427 -54.41416499 465.10714267 -53.9375 461.4375 C-53.78152344 460.21933594 -53.62554688 459.00117188 -53.46484375 457.74609375 C-53 455 -53 455 -52 454 C-51.77329092 452.44246949 -51.60564908 450.87622641 -51.46484375 449.30859375 C-51.37783203 448.36435547 -51.29082031 447.42011719 -51.20117188 446.44726562 C-51.11416016 445.45404297 -51.02714844 444.46082031 -50.9375 443.4375 C-50.84662109 442.44041016 -50.75574219 441.44332031 -50.66210938 440.41601562 C-50.43741186 437.94434298 -50.21689649 435.47236744 -50 433 C-49.34 433 -48.68 433 -48 433 C-48.02320313 432.31292969 -48.04640625 431.62585938 -48.0703125 430.91796875 C-48.09738281 429.56638672 -48.09738281 429.56638672 -48.125 428.1875 C-48.14820313 427.29417969 -48.17140625 426.40085937 -48.1953125 425.48046875 C-48 423 -48 423 -46 420 C-45.56086038 417.79751725 -45.56086038 417.79751725 -45.40234375 415.3671875 C-45.32306641 414.47902344 -45.24378906 413.59085937 -45.16210938 412.67578125 C-45.05092773 411.28939453 -45.05092773 411.28939453 -44.9375 409.875 C-44.78384275 408.03873242 -44.62649247 406.20276884 -44.46484375 404.3671875 C-44.399021 403.55362793 -44.33319824 402.74006836 -44.26538086 401.90185547 C-44 400 -44 400 -43 399 C-42.77329092 397.44246949 -42.60564908 395.87622641 -42.46484375 394.30859375 C-42.37783203 393.36435547 -42.29082031 392.42011719 -42.20117188 391.44726562 C-42.11416016 390.45404297 -42.02714844 389.46082031 -41.9375 388.4375 C-41.84662109 387.44041016 -41.75574219 386.44332031 -41.66210938 385.41601562 C-41.43741186 382.94434298 -41.21689649 380.47236744 -41 378 C-40.34 378 -39.68 378 -39 378 C-39.01160156 377.32195312 -39.02320313 376.64390625 -39.03515625 375.9453125 C-39.19565217 359.39130435 -39.19565217 359.39130435 -37 355 C-36.65586434 352.79637503 -36.34904598 350.58685076 -36.0625 348.375 C-35.52482451 344.43472142 -34.99503341 340.58553163 -33.9375 336.75 C-32.79583226 332.18332905 -32.36469911 327.68350433 -32 323 C-31.34 323 -30.68 323 -30 323 C-30.02320313 322.34515625 -30.04640625 321.6903125 -30.0703125 321.015625 C-30.19280268 314.82112158 -29.63503601 309.10225184 -28.51171875 303.015625 C-27.72322102 298.36890555 -27.35136141 293.69714722 -27 289 C-26.34 289 -25.68 289 -25 289 C-25.01160156 288.32195312 -25.02320313 287.64390625 -25.03515625 286.9453125 C-25.09708351 280.55795793 -24.77018868 274.34030324 -24 268 C-23.34 268 -22.68 268 -22 268 C-22.01160156 267.38511719 -22.02320313 266.77023437 -22.03515625 266.13671875 C-22.04869141 264.92435547 -22.04869141 264.92435547 -22.0625 263.6875 C-22.07410156 262.88699219 -22.08570313 262.08648437 -22.09765625 261.26171875 C-22 259 -22 259 -21 256 C-20.34 256 -19.68 256 -19 256 C-19.01160156 255.33355469 -19.02320313 254.66710937 -19.03515625 253.98046875 C-19.10097366 247.25769055 -18.72383639 240.682561 -18 234 C-17.34 234 -16.68 234 -16 234 C-16.01740234 232.96552734 -16.01740234 232.96552734 -16.03515625 231.91015625 C-16.18456132 216.35068588 -16.18456132 216.35068588 -13.99609375 212.0078125 C-12.92338949 209.84557724 -12.64832144 208.20330487 -12.4375 205.8125 C-12 202 -12 202 -11 201 C-10.62831518 198.839582 -10.30208609 196.67124378 -10 194.5 C-9.11111111 188.11111111 -9.11111111 188.11111111 -8 187 C-7.46075471 184.18947702 -6.96325642 181.38561217 -6.5 178.5625 C-5.13139464 170.26278928 -5.13139464 170.26278928 -4 168 C-3.34 168 -2.68 168 -2 168 C-2.02320313 167.30132812 -2.04640625 166.60265625 -2.0703125 165.8828125 C-2.09738281 164.51769531 -2.09738281 164.51769531 -2.125 163.125 C-2.15980469 161.76761719 -2.15980469 161.76761719 -2.1953125 160.3828125 C-2 158 -2 158 0 156 C0.42355123 153.86407018 0.42355123 153.86407018 0.5625 151.5 C0.90540541 147.18918919 0.90540541 147.18918919 2 145 C2.66 145 3.32 145 4 145 C3.67 143.35 3.34 141.7 3 140 C2.21625 140.825 1.4325 141.65 0.625 142.5 C-2 145 -2 145 -4 145 C-4 145.66 -4 146.32 -4 147 C-5.65 147.33 -7.3 147.66 -9 148 C-9 148.66 -9 149.32 -9 150 C-10.32 150.33 -11.64 150.66 -13 151 C-13 151.66 -13 152.32 -13 153 C-19.75 157 -19.75 157 -22 157 C-22 157.66 -22 158.32 -22 159 C-23.32 159.33 -24.64 159.66 -26 160 C-26 160.66 -26 161.32 -26 162 C-28.1171875 163.5078125 -28.1171875 163.5078125 -30.875 165.125 C-31.77992188 165.66382813 -32.68484375 166.20265625 -33.6171875 166.7578125 C-36 168 -36 168 -38 168 C-38 168.66 -38 169.32 -38 170 C-39.98 170.33 -41.96 170.66 -44 171 C-44.33 171.99 -44.66 172.98 -45 174 C-47.92079805 176.07530387 -49.37546731 177 -53 177 C-53 177.66 -53 178.32 -53 179 C-54.98 179.33 -56.96 179.66 -59 180 C-59 180.66 -59 181.32 -59 182 C-60.32 182.33 -61.64 182.66 -63 183 C-63 183.66 -63 184.32 -63 185 C-65.31 185.33 -67.62 185.66 -70 186 C-70 186.66 -70 187.32 -70 188 C-73.36683915 190.43160605 -74.73350364 191 -79 191 C-79 191.66 -79 192.32 -79 193 C-80.65 193.33 -82.3 193.66 -84 194 C-84 194.66 -84 195.32 -84 196 C-85.4562545 196.67119549 -86.91507867 197.33681807 -88.375 198 C-89.18710938 198.37125 -89.99921875 198.7425 -90.8359375 199.125 C-93 200 -93 200 -95 200 C-95 200.66 -95 201.32 -95 202 C-96.43429001 202.67354499 -97.87257057 203.33859701 -99.3125 204 C-100.11300781 204.37125 -100.91351562 204.7425 -101.73828125 205.125 C-104 206 -104 206 -107 206 C-107 206.66 -107 207.32 -107 208 C-108.28913487 208.67154933 -109.58140204 209.33708859 -110.875 210 C-111.59429688 210.37125 -112.31359375 210.7425 -113.0546875 211.125 C-115 212 -115 212 -117 212 C-117 212.66 -117 213.32 -117 214 C-118.48113281 214.72316406 -118.48113281 214.72316406 -119.9921875 215.4609375 C-121.2865631 216.09874577 -122.58082821 216.73677829 -123.875 217.375 C-124.52597656 217.69210937 -125.17695312 218.00921875 -125.84765625 218.3359375 C-128.58177041 219.68890121 -130.82772518 220.82772518 -133 223 C-139.34615385 226 -139.34615385 226 -143 226 C-143 226.66 -143 227.32 -143 228 C-144.98 228.33 -146.96 228.66 -149 229 C-149 229.66 -149 230.32 -149 231 C-155.5 235 -155.5 235 -160 235 C-160 235.66 -160 236.32 -160 237 C-161.65 237.33 -163.3 237.66 -165 238 C-165 238.66 -165 239.32 -165 240 C-168.36683915 242.43160605 -169.73350364 243 -174 243 C-174 243.66 -174 244.32 -174 245 C-175.4562545 245.67119549 -176.91507867 246.33681807 -178.375 247 C-179.18710938 247.37125 -179.99921875 247.7425 -180.8359375 248.125 C-183 249 -183 249 -185 249 C-185 249.66 -185 250.32 -185 251 C-188.50614583 253.0750659 -191.91198202 255.02614203 -195.6875 256.5625 C-198.94357735 257.80577435 -198.94357735 257.80577435 -201.125 259.6875 C-203.52833962 261.36983774 -205.13076197 261.23910317 -208 261 C-208.33 261.99 -208.66 262.98 -209 264 C-209.99 264 -210.98 264 -212 264 C-212 264.66 -212 265.32 -212 266 C-212.64066406 266.31453125 -213.28132813 266.6290625 -213.94140625 266.953125 C-217.95621645 268.93958847 -221.94704494 270.92124869 -225.8125 273.1875 C-228.52965725 274.7325502 -231.11185087 275.84474035 -234 277 C-237.08309499 278.6869765 -240.0868259 280.3947567 -243.015625 282.3359375 C-247.02991154 284.98659235 -250.07163787 286.63037284 -255 287 C-255 287.66 -255 288.32 -255 289 C-256.7664657 290.0076952 -258.53833823 291.00591714 -260.3125 292 C-261.79169922 292.8353125 -261.79169922 292.8353125 -263.30078125 293.6875 C-266 295 -266 295 -269 295 C-269 295.66 -269 296.32 -269 297 C-270.4562545 297.67119549 -271.91507867 298.33681807 -273.375 299 C-274.18710938 299.37125 -274.99921875 299.7425 -275.8359375 300.125 C-278 301 -278 301 -280 301 C-280 301.66 -280 302.32 -280 303 C-281.43429001 303.67354499 -282.87257057 304.33859701 -284.3125 305 C-285.11300781 305.37125 -285.91351562 305.7425 -286.73828125 306.125 C-289 307 -289 307 -292 307 C-292.33 307.99 -292.66 308.98 -293 310 C-293.99 310 -294.98 310 -296 310 C-296 310.66 -296 311.32 -296 312 C-297.98 312.33 -299.96 312.66 -302 313 C-302 313.66 -302 314.32 -302 315 C-303.65 315.33 -305.3 315.66 -307 316 C-307 316.66 -307 317.32 -307 318 C-308.65 318 -310.3 318 -312 318 C-312.33 318.99 -312.66 319.98 -313 321 C-313.99 321 -314.98 321 -316 321 C-316 321.66 -316 322.32 -316 323 C-316.52207031 323.21914063 -317.04414062 323.43828125 -317.58203125 323.6640625 C-323.15917589 326.06682534 -328.43536139 328.82825036 -333.71484375 331.828125 C-336 333 -336 333 -338 333 C-338 333.66 -338 334.32 -338 335 C-340.31 335.33 -342.62 335.66 -345 336 C-345 336.66 -345 337.32 -345 338 C-346.65 338.33 -348.3 338.66 -350 339 C-350 339.66 -350 340.32 -350 341 C-351.95585325 342.00484204 -353.91476237 343.00373805 -355.875 344 C-356.96554687 344.556875 -358.05609375 345.11375 -359.1796875 345.6875 C-362 347 -362 347 -364 347 C-364 347.66 -364 348.32 -364 349 C-365.98 349.33 -367.96 349.66 -370 350 C-370 350.66 -370 351.32 -370 352 C-371.24460783 352.67667998 -372.49596896 353.34094719 -373.75 354 C-374.44609375 354.37125 -375.1421875 354.7425 -375.859375 355.125 C-378 356 -378 356 -382 356 C-382 356.66 -382 357.32 -382 358 C-385.67452438 360.8394052 -387.26886581 362 -392 362 C-392 362.66 -392 363.32 -392 364 C-393.65 364.33 -395.3 364.66 -397 365 C-397 365.66 -397 366.32 -397 367 C-397.66386719 367.32613281 -398.32773438 367.65226562 -399.01171875 367.98828125 C-404.49057842 370.69247787 -404.49057842 370.69247787 -409.8125 373.6875 C-412.14693132 375.08815879 -414.4532905 376.04498394 -417 377 C-417.928125 377.37125 -418.85625 377.7425 -419.8125 378.125 C-420.8953125 378.558125 -420.8953125 378.558125 -422 379 C-422 379.66 -422 380.32 -422 381 C-423.98 381.33 -425.96 381.66 -428 382 C-428 382.66 -428 383.32 -428 384 C-429.98 384.33 -431.96 384.66 -434 385 C-434 385.66 -434 386.32 -434 387 C-435.98 387.33 -437.96 387.66 -440 388 C-440 388.66 -440 389.32 -440 390 C-441.7664657 391.0076952 -443.53833823 392.00591714 -445.3125 393 C-446.79169922 393.8353125 -446.79169922 393.8353125 -448.30078125 394.6875 C-451 396 -451 396 -454 396 C-454 396.66 -454 397.32 -454 398 C-455.65 398.33 -457.3 398.66 -459 399 C-459 399.66 -459 400.32 -459 401 C-460.98 401.33 -462.96 401.66 -465 402 C-465 402.66 -465 403.32 -465 404 C-467.40037912 405.64597425 -469.72041012 406.89246543 -472.4375 407.9375 C-475.16907605 408.95636814 -475.16907605 408.95636814 -477.875 411.0625 C-481.35573099 413.22055321 -483.95493144 413.67639452 -488 414 C-488.33 414.99 -488.66 415.98 -489 417 C-489.99 417 -490.98 417 -492 417 C-492 417.66 -492 418.32 -492 419 C-493.85364613 419.92682306 -495.70753079 420.85317159 -497.5625 421.77734375 C-499.27497418 422.63632519 -500.98293874 423.50432758 -502.6875 424.37890625 C-503.574375 424.83136719 -504.46125 425.28382813 -505.375 425.75 C-506.62410156 426.39195312 -506.62410156 426.39195312 -507.8984375 427.046875 C-510 428 -510 428 -512 428 C-512 428.66 -512 429.32 -512 430 C-513.43429001 430.67354499 -514.87257057 431.33859701 -516.3125 432 C-517.11300781 432.37125 -517.91351562 432.7425 -518.73828125 433.125 C-521 434 -521 434 -524 434 C-524 434.66 -524 435.32 -524 436 C-526.39164168 437.32066755 -528.78780216 438.63161792 -531.1875 439.9375 C-532.19780273 440.49727539 -532.19780273 440.49727539 -533.22851562 441.06835938 C-536.80620758 443.00554868 -539.8986345 444.49827956 -544 445 C-544 445.66 -544 446.32 -544 447 C-550.5 451 -550.5 451 -555 451 C-555 451.66 -555 452.32 -555 453 C-556.65 453.33 -558.3 453.66 -560 454 C-560 454.66 -560 455.32 -560 456 C-561.98 456.33 -563.96 456.66 -566 457 C-566 457.66 -566 458.32 -566 459 C-577.39175258 465.70103093 -577.39175258 465.70103093 -583 465 C-585.8125 463.625 -585.8125 463.625 -588 462 C-588 461.34 -588 460.68 -588 460 C-590.93720508 458.47700477 -593.9168649 457.19899698 -597 456 C-597 455.34 -597 454.68 -597 454 C-597.66 454 -598.32 454 -599 454 C-600 453 -601 452 -602 451 C-602.99 450.67 -603.98 450.34 -605 450 C-605 449.34 -605 448.68 -605 448 C-605.99 448 -606.98 448 -608 448 C-608 447.34 -608 446.68 -608 446 C-608.5671875 445.731875 -609.134375 445.46375 -609.71875 445.1875 C-612.91718788 443.52255973 -615.80967951 441.47282225 -618.78125 439.4375 C-620.80445853 438.12668884 -622.82287326 437.02918719 -625 436 C-625 435.34 -625 434.68 -625 434 C-625.7425 433.9175 -626.485 433.835 -627.25 433.75 C-630.58975702 432.83915718 -631.59910472 431.4495322 -634 429 C-635.53550544 427.83842594 -637.0998002 426.71414672 -638.6875 425.625 C-639.99074219 424.72587891 -639.99074219 424.72587891 -641.3203125 423.80859375 C-644.61520602 421.58478078 -647.93927733 419.40802069 -651.28515625 417.26171875 C-653 416 -653 416 -654 414 C-654.99 413.67 -655.98 413.34 -657 413 C-657 412.34 -657 411.68 -657 411 C-658.65 410.67 -660.3 410.34 -662 410 C-662.495 408.515 -662.495 408.515 -663 407 C-663.99 407 -664.98 407 -666 407 C-666 406.34 -666 405.68 -666 405 C-667.65 404.67 -669.3 404.34 -671 404 C-671 403.34 -671 402.68 -671 402 C-671.99 401.67 -672.98 401.34 -674 401 C-674 400.34 -674 399.68 -674 399 C-675.10408203 398.85111328 -675.10408203 398.85111328 -676.23046875 398.69921875 C-679.33247967 397.91605944 -680.86339711 396.84073329 -683.3125 394.8125 C-684.47072266 393.87470703 -684.47072266 393.87470703 -685.65234375 392.91796875 C-686.42707031 392.28503906 -687.20179687 391.65210938 -688 391 C-689.45114499 389.86574283 -690.90901583 388.7400119 -692.375 387.625 C-693.00148438 387.14289063 -693.62796875 386.66078125 -694.2734375 386.1640625 C-696.10775819 384.81511762 -696.10775819 384.81511762 -699 384 C-699 383.34 -699 382.68 -699 382 C-700.32 381.67 -701.64 381.34 -703 381 C-703.33 379.68 -703.66 378.36 -704 377 C-702.68 376.34 -701.36 375.68 -700 375 C-700 374.34 -700 373.68 -700 373 C-698.5437455 372.32880451 -697.08492133 371.66318193 -695.625 371 C-694.81289062 370.62875 -694.00078125 370.2575 -693.1640625 369.875 C-691 369 -691 369 -689 369 C-689 368.34 -689 367.68 -689 367 C-686.69 366.67 -684.38 366.34 -682 366 C-682 365.34 -682 364.68 -682 364 C-669.31476323 355 -669.31476323 355 -663 355 C-663 354.34 -663 353.68 -663 353 C-661.02 352.67 -659.04 352.34 -657 352 C-657 351.34 -657 350.68 -657 350 C-655.75539217 349.32332002 -654.50403104 348.65905281 -653.25 348 C-652.55390625 347.62875 -651.8578125 347.2575 -651.140625 346.875 C-649 346 -649 346 -645 346 C-645 345.34 -645 344.68 -645 344 C-642.00893216 341.63496961 -639.97138418 340.08446819 -636.125 339.75 C-635.42375 339.8325 -634.7225 339.915 -634 340 C-634 339.34 -634 338.68 -634 338 C-633.04738281 337.45730469 -632.09476563 336.91460937 -631.11328125 336.35546875 C-629.84633756 335.63284161 -628.57941141 334.91018373 -627.3125 334.1875 C-626.68666016 333.83107422 -626.06082031 333.47464844 -625.41601562 333.10742188 C-622.675227 331.5433069 -619.94965305 329.9693478 -617.25390625 328.328125 C-615 327 -615 327 -611.625 325.5625 C-607.86306515 323.94097636 -604.53838829 322.05869864 -601 320 C-595.32142857 317 -595.32142857 317 -593 317 C-593 316.34 -593 315.68 -593 315 C-592.195625 314.87625 -591.39125 314.7525 -590.5625 314.625 C-589.716875 314.41875 -588.87125 314.2125 -588 314 C-587.67 313.34 -587.34 312.68 -587 312 C-583.88264084 309.89119821 -580.67262832 308.44237338 -577.20703125 307.0078125 C-573.13100992 305.14654966 -569.23931889 302.92512321 -565.3046875 300.78515625 C-562.32388719 299.17496034 -559.33208039 297.59854741 -556.3125 296.0625 C-555.52488281 295.66160156 -554.73726562 295.26070313 -553.92578125 294.84765625 C-552 294 -552 294 -550 294 C-550 293.34 -550 292.68 -550 292 C-548.35 291.67 -546.7 291.34 -545 291 C-545 290.34 -545 289.68 -545 289 C-544.01386719 288.60167969 -543.02773437 288.20335937 -542.01171875 287.79296875 C-536.9960259 285.64555029 -532.37774896 282.84027985 -527.69726562 280.05273438 C-527.01986328 279.66021484 -526.34246094 279.26769531 -525.64453125 278.86328125 C-525.03971924 278.50532471 -524.43490723 278.14736816 -523.81176758 277.77856445 C-522 277 -522 277 -518 277 C-518 276.34 -518 275.68 -518 275 C-516.35 274.67 -514.7 274.34 -513 274 C-513 273.34 -513 272.68 -513 272 C-511.02 271.67 -509.04 271.34 -507 271 C-507 270.34 -507 269.68 -507 269 C-505.02 268.67 -503.04 268.34 -501 268 C-501 267.34 -501 266.68 -501 266 C-499.02 265.67 -497.04 265.34 -495 265 C-495 264.34 -495 263.68 -495 263 C-490.51866817 259.41493454 -486.59352956 258.15728198 -481 257 C-481 256.34 -481 255.68 -481 255 C-478.29930572 253.50656376 -475.58827625 252.03293507 -472.875 250.5625 C-472.11445312 250.14162109 -471.35390625 249.72074219 -470.5703125 249.28710938 C-466.3670311 247.02241035 -462.84149745 245.42537118 -458 245 C-457.67 244.01 -457.34 243.02 -457 242 C-454.34765625 240.46484375 -454.34765625 240.46484375 -451.0625 238.9375 C-446.68785475 236.96017592 -446.68785475 236.96017592 -443 234 C-441.88625 233.566875 -441.88625 233.566875 -440.75 233.125 C-437.86114547 232.05443659 -437.86114547 232.05443659 -435.0625 230 C-432 228 -432 228 -429.25 227.125 C-425.25009646 225.74041801 -422.00883963 223.62972418 -418.46484375 221.33984375 C-415.93580183 219.96510305 -413.8337145 219.40914594 -411 219 C-411 218.34 -411 217.68 -411 217 C-409.35 216.67 -407.7 216.34 -406 216 C-406 215.34 -406 214.68 -406 214 C-404.02 213.67 -402.04 213.34 -400 213 C-400 212.34 -400 211.68 -400 211 C-398.64068359 210.32904297 -398.64068359 210.32904297 -397.25390625 209.64453125 C-396.02319807 209.03433683 -394.79274663 208.42362443 -393.5625 207.8125 C-392.92594482 207.49659912 -392.28938965 207.18069824 -391.63354492 206.85522461 C-387.25405385 204.66686376 -382.9790121 202.35080834 -378.76953125 199.84765625 C-377 199 -377 199 -374 199 C-374 198.34 -374 197.68 -374 197 C-372.02 196.67 -370.04 196.34 -368 196 C-368 195.34 -368 194.68 -368 194 C-366.35 193.67 -364.7 193.34 -363 193 C-363 192.34 -363 191.68 -363 191 C-361.02 190.67 -359.04 190.34 -357 190 C-357 189.34 -357 188.68 -357 188 C-355.02 187.67 -353.04 187.34 -351 187 C-350.67 186.01 -350.34 185.02 -350 184 C-347.8203125 182.61328125 -347.8203125 182.61328125 -345.125 181.3125 C-344.24070312 180.87550781 -343.35640625 180.43851563 -342.4453125 179.98828125 C-340 179 -340 179 -337 179 C-337 178.34 -337 177.68 -337 177 C-335.02 176.67 -333.04 176.34 -331 176 C-330.67 175.01 -330.34 174.02 -330 173 C-326.30414334 170.78248601 -324.36991627 170 -320 170 C-320 169.34 -320 168.68 -320 168 C-318.35 167.67 -316.7 167.34 -315 167 C-315 166.34 -315 165.68 -315 165 C-312.69 164.67 -310.38 164.34 -308 164 C-307.67 163.01 -307.34 162.02 -307 161 C-303.77208445 158.8480563 -302.71599191 158.79913557 -299 159 C-299 158.34 -299 157.68 -299 157 C-294.1136791 154.21134211 -289.18652897 151.58307934 -284.125 149.125 C-278.98112797 146.59899141 -274.27841645 143.67908662 -269.5703125 140.41796875 C-266.68694668 138.82729733 -264.25342982 138.3651809 -261 138 C-261 137.34 -261 136.68 -261 136 C-259.35 135.67 -257.7 135.34 -256 135 C-256 134.34 -256 133.68 -256 133 C-254.98486328 132.62294922 -254.98486328 132.62294922 -253.94921875 132.23828125 C-250.44770091 130.76810753 -247.14411102 129.00004547 -243.8125 127.1875 C-239.28968172 124.75405422 -234.76536243 122.32897083 -230.1875 120 C-229.41792969 119.608125 -228.64835937 119.21625 -227.85546875 118.8125 C-226 118 -226 118 -224 118 C-224 117.34 -224 116.68 -224 116 C-222.02 115.67 -220.04 115.34 -218 115 C-218 114.34 -218 113.68 -218 113 C-216.35 112.67 -214.7 112.34 -213 112 C-213 111.34 -213 110.68 -213 110 C-212.41992188 109.75765625 -211.83984375 109.5153125 -211.2421875 109.265625 C-206.45908775 107.21346999 -202.32575588 104.91326416 -198 102 C-192.4804499 98.9550482 -187.13769127 96.46770878 -181 95 C-181 94.34 -181 93.68 -181 93 C-177.17057052 90.09891706 -173.72463088 89.46319911 -169 89 C-168.67 88.01 -168.34 87.02 -168 86 C-167.01 86 -166.02 86 -165 86 C-165 85.34 -165 84.68 -165 84 C-163.94941406 83.48050781 -162.89882812 82.96101563 -161.81640625 82.42578125 C-155.11847617 79.10235646 -148.44761619 75.77820768 -141.9453125 72.08203125 C-139.94860671 70.97141377 -137.9246333 69.94673009 -135.875 68.9375 C-132.88801427 67.46446594 -129.99557027 65.87717 -127.1171875 64.19921875 C-123.18696966 61.97306215 -119.17731186 59.89077697 -115.18359375 57.78125 C-111.94985885 56.02635241 -111.94985885 56.02635241 -108.8203125 53.87890625 C-105.67715775 51.78492088 -102.47897693 50.4548449 -99 49 C-98.113125 48.443125 -97.22625 47.88625 -96.3125 47.3125 C-94 46 -94 46 -90 46 C-90 45.34 -90 44.68 -90 44 C-83.5 40 -83.5 40 -79 40 C-79 39.34 -79 38.68 -79 38 C-77.35 37.67 -75.7 37.34 -74 37 C-74 36.34 -74 35.68 -74 35 C-73.12859375 34.57589844 -72.2571875 34.15179688 -71.359375 33.71484375 C-64.26909787 30.23179518 -57.42339705 26.58263355 -50.71875 22.3828125 C-47.77645268 20.88629921 -45.26365815 20.37436079 -42 20 C-42 19.34 -42 18.68 -42 18 C-38.44239635 15.38411497 -35.35522853 14.50642192 -31 14 C-31 13.34 -31 12.68 -31 12 C-28.03 11.505 -28.03 11.505 -25 11 C-25 10.34 -25 9.68 -25 9 C-22.03 8.505 -22.03 8.505 -19 8 C-18.67 7.01 -18.34 6.02 -18 5 C-15.8203125 3.6484375 -15.8203125 3.6484375 -13.125 2.375 C-11.79855469 1.73691406 -11.79855469 1.73691406 -10.4453125 1.0859375 C-6.40551408 -0.70809439 -4.25365623 -1.25590147 0 0 Z " fill="#000000" transform="translate(1907,49)"/>
</svg>
